<svg width="290" height="39" viewBox="0 0 290 39" fill="none" xmlns="http://www.w3.org/2000/svg">
<path d="M6.70479 0.67995C5.86669 4.17684 5.81739 7.81943 5.81739 11.462V27.538C5.81739 31.1806 5.86669 34.8232 6.70479 38.32H0C0.838099 34.8232 0.887399 31.1806 0.887399 27.538V11.462C0.887399 7.81943 0.838099 4.17684 0 0.67995H6.70479Z" fill="#141818"/>
<path d="M23.0674 0.67995C30.5117 0.67995 36.8714 4.90536 36.8714 11.6077C36.8714 16.9502 32.8288 20.8356 27.4058 22.1955L34.505 32.3462C36.0826 34.3861 37.8081 36.3773 39.7308 38.32H32.0893C31.2512 36.4745 29.9694 34.4346 27.7016 30.9863L21.687 22.7298H18.4332V27.538C18.4332 31.1806 18.4825 34.8232 19.3206 38.32H12.6158C13.4539 34.8232 13.5032 31.1806 13.5032 27.538V11.462C13.5032 7.81943 13.4539 4.17684 12.6158 0.67995H23.0674ZM18.4332 18.8443H21.5884C28.0467 18.8443 31.547 16.3674 31.547 11.6077C31.547 6.84807 28.0467 4.56538 21.5884 4.56538H18.4332V18.8443Z" fill="#141818"/>
<path d="M59.8393 39C48.5497 39 40.4645 30.5006 40.4645 19.4757C40.4645 8.45081 48.5497 0 59.8393 0C71.129 0 79.2635 8.35367 79.2635 19.4757C79.2635 30.5006 71.129 39 59.8393 39ZM59.7901 35.1146C68.3682 35.1146 73.9391 27.8294 73.9391 19.4757C73.9391 11.0249 68.3682 3.88543 59.7901 3.88543C51.2612 3.88543 45.7889 11.122 45.7889 19.4757C45.7889 27.8294 51.2612 35.1146 59.7901 35.1146Z" fill="#141818"/>
<path d="M89.9331 0.67995L110.442 32.0062V11.4135C110.442 7.77086 110.393 4.12827 109.554 0.631383H116.013C115.175 4.12827 115.125 7.77086 115.125 11.4135V27.4894C115.125 31.132 115.175 34.8232 116.013 38.32H108.914L88.5527 7.23661V27.538C88.5527 31.1806 88.602 34.8232 89.4401 38.32H82.9818C83.8199 34.8232 83.8692 31.1806 83.8692 27.538V11.462C83.8692 7.81943 83.8199 4.17684 82.9818 0.67995H89.9331Z" fill="#141818"/>
<path d="M157.354 38.32L147.396 9.17933L137.486 38.32H132.556L122.696 9.3736C121.612 6.36239 120.576 3.69116 118.703 0.67995H125.802C126.197 2.76837 126.591 5.63387 127.971 9.71357L135.12 30.7435L145.374 0.67995H149.466L159.721 30.7435L166.869 9.66501C168.25 5.63387 168.644 2.76837 169.038 0.67995H176.138C174.264 3.69116 173.229 6.36239 172.144 9.3736L162.284 38.32H157.354Z" fill="#141818"/>
<path d="M193.577 39C182.287 39 174.202 30.5006 174.202 19.4757C174.202 8.45081 182.287 0 193.577 0C204.867 0 213.001 8.35367 213.001 19.4757C213.001 30.5006 204.867 39 193.577 39ZM193.528 35.1146C202.106 35.1146 207.677 27.8294 207.677 19.4757C207.677 11.0249 202.106 3.88543 193.528 3.88543C184.999 3.88543 179.527 11.122 179.527 19.4757C179.527 27.8294 184.999 35.1146 193.528 35.1146Z" fill="#141818"/>
<path d="M234.369 39C223.079 39 214.994 30.5006 214.994 19.4757C214.994 8.45081 223.079 0 234.369 0C245.659 0 253.793 8.35367 253.793 19.4757C253.793 30.5006 245.659 39 234.369 39ZM234.32 35.1146C242.898 35.1146 248.469 27.8294 248.469 19.4757C248.469 11.0249 242.898 3.88543 234.32 3.88543C225.791 3.88543 220.318 11.122 220.318 19.4757C220.318 27.8294 225.791 35.1146 234.32 35.1146Z" fill="#141818"/>
<path d="M270.477 0.67995C283.887 0.67995 290 11.0735 290 19.4757C290 27.878 283.887 38.32 270.477 38.32H257.511C258.349 34.8232 258.399 31.1806 258.399 27.538V11.462C258.399 7.81943 258.349 4.17684 257.511 0.67995H270.477ZM263.329 34.4346H268.998C281.422 34.4346 284.676 25.9352 284.676 19.4757C284.676 13.0162 281.422 4.56538 268.998 4.56538H263.329V34.4346Z" fill="#141818"/>
</svg>
