<svg preserveAspectRatio="none" width="100%" height="100%" overflow="visible" style="display: block;" viewBox="0 0 636 555" fill="none" xmlns="http://www.w3.org/2000/svg">
<g id="Shield QR Bg">
<mask id="mask0_0_4" style="mask-type:alpha" maskUnits="userSpaceOnUse" x="7" y="108" width="622" height="322">
<ellipse id="Mask" cx="318" cy="269" rx="311" ry="161" fill="url(#paint0_radial_0_4)"/>
</mask>
<g mask="url(#mask0_0_4)">
<g id="pattern" opacity="0.35">
<path id="Vector" d="M317.907 275.729C318.205 275.729 318.503 275.853 318.742 276.06C323.596 280.252 328.544 282.332 333.622 282.332C334 282.332 334.371 282.506 334.64 282.821C334.908 283.136 335.061 283.558 335.061 283.997V295.555C335.061 301.057 333.651 305.837 330.861 309.864C328.071 313.891 323.908 317.163 318.401 319.666C318.06 319.823 317.689 319.823 317.347 319.666C311.84 317.163 307.677 313.891 304.887 309.864C302.097 305.837 300.688 301.065 300.688 295.555V283.997C300.688 283.558 300.84 283.136 301.109 282.821C301.378 282.506 301.748 282.332 302.126 282.332C307.205 282.332 312.16 280.252 317.006 276.06C317.253 275.845 317.558 275.729 317.871 275.729H317.9H317.907Z" stroke="#000000" stroke-width="1.83506"/>
<path id="Vector_2" d="M317.922 263.94C318.387 263.949 318.831 264.131 319.201 264.446C326.648 270.892 334.248 274.073 342.051 274.073C342.64 274.073 343.199 274.338 343.613 274.819C344.028 275.3 344.26 275.946 344.26 276.617V294.356C344.26 302.807 342.095 310.139 337.808 316.32C333.529 322.501 327.135 327.522 318.685 331.366C318.162 331.598 317.588 331.598 317.065 331.366C308.615 327.53 302.221 322.501 297.942 316.32C293.663 310.139 291.49 302.807 291.49 294.356V276.617C291.49 275.938 291.723 275.291 292.137 274.819C292.551 274.338 293.11 274.073 293.699 274.073C301.502 274.073 309.102 270.884 316.549 264.446C316.934 264.114 317.399 263.94 317.879 263.94H317.922Z" stroke="#000000" stroke-width="1.80395"/>
<path id="Vector_3" d="M317.936 252.152C318.561 252.169 319.164 252.409 319.666 252.84C329.707 261.531 339.958 265.823 350.479 265.823C351.271 265.823 352.027 266.179 352.586 266.826C353.145 267.472 353.458 268.342 353.458 269.253V293.173C353.458 304.574 350.537 314.458 344.761 322.793C338.985 331.128 330.361 337.905 318.968 343.084C318.271 343.398 317.486 343.398 316.789 343.084C305.389 337.905 296.765 331.128 290.996 322.793C285.22 314.458 282.299 304.574 282.299 293.173V269.253C282.299 268.342 282.611 267.464 283.171 266.826C283.73 266.179 284.486 265.823 285.278 265.823C295.798 265.823 306.05 261.523 316.091 252.84C316.607 252.393 317.239 252.152 317.878 252.152H317.936Z" stroke="#000000" stroke-width="1.77285"/>
<path id="Vector_4" d="M317.95 240.364C318.735 240.381 319.498 240.679 320.123 241.226C332.765 252.163 345.661 257.573 358.899 257.573C359.895 257.573 360.846 258.029 361.551 258.832C362.256 259.644 362.648 260.746 362.648 261.889V291.998C362.648 306.34 358.972 318.793 351.699 329.274C344.433 339.763 333.579 348.289 319.236 354.809C318.357 355.207 317.376 355.207 316.49 354.809C302.148 348.297 291.293 339.763 284.027 329.274C276.762 318.785 273.078 306.34 273.078 291.998V261.889C273.078 260.746 273.47 259.644 274.175 258.832C274.88 258.02 275.832 257.573 276.827 257.573C290.065 257.573 302.969 252.163 315.604 241.226C316.25 240.663 317.042 240.364 317.856 240.364H317.929H317.95Z" stroke="#000000" stroke-width="1.74175"/>
<path id="Vector_5" d="M317.966 228.576C318.911 228.601 319.834 228.957 320.589 229.612C335.825 242.794 351.374 249.314 367.336 249.314C368.535 249.314 369.683 249.861 370.533 250.839C371.383 251.816 371.855 253.142 371.855 254.526V290.815C371.855 308.107 367.423 323.112 358.661 335.755C349.899 348.398 336.821 358.68 319.528 366.535C318.468 367.015 317.283 367.015 316.215 366.535C298.923 358.68 285.845 348.398 277.083 335.755C268.321 323.112 263.889 308.107 263.889 290.824V254.534C263.889 253.15 264.368 251.825 265.211 250.847C266.061 249.869 267.209 249.323 268.408 249.323C284.37 249.323 299.919 242.802 315.155 229.62C315.939 228.941 316.891 228.576 317.872 228.576H317.966Z" stroke="#000000" stroke-width="1.71065"/>
<path id="Vector_6" d="M317.981 216.789C319.085 216.814 320.16 217.236 321.047 218.007C338.877 233.434 357.077 241.065 375.757 241.065C377.159 241.065 378.51 241.703 379.498 242.846C380.487 243.99 381.046 245.547 381.046 247.163V289.642C381.046 309.883 375.851 327.439 365.599 342.237C355.348 357.035 340.039 369.065 319.797 378.261C318.555 378.825 317.167 378.825 315.925 378.261C295.69 369.065 280.374 357.035 270.122 342.237C259.871 327.439 254.676 309.883 254.676 289.65V247.171C254.676 245.556 255.235 243.998 256.223 242.855C257.211 241.711 258.563 241.073 259.965 241.073C278.645 241.073 296.845 233.443 314.675 218.015C315.59 217.22 316.709 216.797 317.85 216.797H317.959L317.981 216.789Z" stroke="#000000" stroke-width="1.67332"/>
<path id="Vector_7" d="M317.994 205.001C319.265 205.034 320.493 205.515 321.511 206.393C341.941 224.065 362.794 232.806 384.191 232.806C385.796 232.806 387.344 233.536 388.477 234.845C389.611 236.154 390.25 237.935 390.25 239.791V288.451C390.25 311.633 384.3 331.75 372.558 348.701C360.817 365.653 343.271 379.44 320.094 389.971C318.67 390.617 317.079 390.617 315.654 389.971C292.47 379.44 274.931 365.653 263.19 348.701C251.449 331.75 245.498 311.633 245.498 288.451V239.791C245.498 237.935 246.137 236.162 247.271 234.845C248.404 233.536 249.952 232.806 251.558 232.806C272.955 232.806 293.807 224.065 314.238 206.393C315.284 205.49 316.563 205.001 317.878 205.001H318.001H317.994Z" stroke="#000000" stroke-width="1.64222"/>
<path id="Vector_8" d="M318.016 193.253C319.448 193.286 320.835 193.833 321.976 194.827C345.001 214.745 368.505 224.596 392.619 224.605C394.428 224.605 396.172 225.433 397.451 226.908C398.73 228.383 399.449 230.388 399.449 232.476V287.324C399.449 313.456 392.743 336.125 379.505 355.231C366.267 374.337 346.497 389.872 320.37 401.744C318.765 402.474 316.977 402.474 315.372 401.744C289.245 389.872 269.475 374.337 256.237 355.231C242.999 336.125 236.293 313.456 236.293 287.324V232.476C236.293 230.388 237.012 228.383 238.291 226.908C239.57 225.433 241.314 224.605 243.123 224.605C267.237 224.605 290.741 214.745 313.766 194.827C314.95 193.808 316.389 193.253 317.871 193.253H318.009H318.016Z" stroke="#000000" stroke-width="1.61112"/>
<path id="Vector_9" d="M318.032 181.425C319.623 181.458 321.17 182.071 322.442 183.173C348.06 205.336 374.216 216.306 401.048 216.306C403.061 216.306 405.001 217.226 406.425 218.866C407.849 220.507 408.648 222.744 408.648 225.064V286.093C408.648 315.175 401.186 340.403 386.459 361.655C371.732 382.915 349.731 400.207 320.655 413.413C318.867 414.225 316.876 414.225 315.089 413.413C286.012 400.207 264.012 382.915 249.285 361.655C234.557 340.395 227.096 315.166 227.096 286.093V225.064C227.096 222.744 227.895 220.507 229.319 218.866C230.743 217.226 232.683 216.306 234.696 216.306C261.535 216.306 287.683 205.336 313.302 183.173C314.617 182.038 316.223 181.425 317.865 181.425H318.017H318.032Z" stroke="#000000" stroke-width="1.58002"/>
<path id="Vector_10" d="M318.046 169.645C319.797 169.686 321.497 170.358 322.899 171.567C351.119 195.976 379.92 208.056 409.476 208.056C411.692 208.056 413.828 209.066 415.398 210.873C416.967 212.679 417.846 215.14 417.846 217.7V284.918C417.846 316.941 409.629 344.73 393.405 368.144C377.181 391.559 352.957 410.598 320.931 425.147C318.962 426.042 316.767 426.042 314.798 425.147C282.779 410.598 258.548 391.559 242.324 368.136C226.1 344.722 217.883 316.933 217.883 284.918V217.7C217.883 215.14 218.762 212.679 220.331 210.873C221.901 209.066 224.037 208.056 226.253 208.056C255.809 208.056 284.61 195.976 312.829 171.567C314.275 170.316 316.048 169.637 317.857 169.637H318.024L318.046 169.645Z" stroke="#000000" stroke-width="1.54891"/>
<path id="Vector_11" d="M318.06 157.889C319.971 157.93 321.831 158.667 323.364 159.993C354.177 186.647 385.63 199.837 417.904 199.837C420.33 199.837 422.655 200.939 424.37 202.919C426.085 204.9 427.044 207.576 427.044 210.376V283.776C427.044 318.748 418.071 349.089 400.357 374.657C382.644 400.226 356.183 421.022 321.213 436.905C319.063 437.882 316.672 437.882 314.522 436.905C279.553 421.022 253.099 400.217 235.378 374.649C217.664 349.08 208.691 318.74 208.691 283.776V210.376C208.691 207.584 209.658 204.9 211.365 202.919C213.08 200.947 215.405 199.837 217.832 199.837C250.105 199.837 281.558 186.647 312.371 159.993C313.955 158.626 315.88 157.889 317.857 157.889H318.046H318.06Z" stroke="#000000" stroke-width="1.51781"/>
<path id="Vector_12" d="M318.073 146.11C320.144 146.16 322.164 146.955 323.82 148.388C357.235 177.287 391.332 191.588 426.331 191.588C428.961 191.588 431.482 192.789 433.342 194.927C435.202 197.073 436.248 199.981 436.248 203.013V282.602C436.248 320.524 426.519 353.417 407.317 381.139C388.106 408.862 359.422 431.406 321.51 448.631C319.178 449.692 316.584 449.692 314.252 448.631C276.34 431.406 247.648 408.854 228.445 381.131C209.235 353.408 199.514 320.507 199.514 282.594V203.005C199.514 199.973 200.56 197.064 202.413 194.919C204.273 192.781 206.794 191.58 209.424 191.58C244.422 191.58 278.52 177.279 311.934 148.38C313.649 146.897 315.741 146.102 317.885 146.102H318.088L318.073 146.11Z" stroke="#000000" stroke-width="1.48671"/>
<path id="Vector_13" d="M318.09 134.29C320.328 134.34 322.5 135.201 324.287 136.742C360.296 167.887 397.045 183.298 434.76 183.306C437.594 183.306 440.311 184.598 442.317 186.902C444.322 189.213 445.448 192.345 445.448 195.61V281.379C445.448 322.242 434.964 357.695 414.264 387.572C393.565 417.449 362.65 441.75 321.788 460.309C319.274 461.452 316.477 461.452 313.963 460.309C273.101 441.75 242.186 417.44 221.487 387.564C200.787 357.687 190.303 322.234 190.303 281.371V195.601C190.303 192.337 191.429 189.197 193.434 186.893C195.439 184.582 198.157 183.298 200.99 183.298C238.706 183.298 275.455 167.887 311.464 136.734C313.309 135.135 315.569 134.273 317.879 134.273H318.097L318.09 134.29Z" stroke="#000000" stroke-width="1.4556"/>
<path id="Vector_14" d="M318.103 122.525C320.501 122.583 322.826 123.495 324.744 125.16C363.346 158.55 402.747 175.079 443.18 175.079C446.217 175.079 449.131 176.463 451.281 178.94C453.425 181.417 454.638 184.781 454.638 188.278V280.228C454.638 324.041 443.398 362.054 421.209 394.085C399.013 426.116 365.874 452.165 322.063 472.066C319.367 473.292 316.374 473.292 313.679 472.066C269.867 452.165 236.729 426.107 214.532 394.076C192.336 362.045 181.104 324.032 181.104 280.228V188.278C181.104 184.773 182.31 181.417 184.46 178.94C186.604 176.463 189.524 175.079 192.561 175.079C232.994 175.079 272.395 158.558 310.998 125.16C312.981 123.445 315.393 122.525 317.871 122.525H318.103Z" stroke="#000000" stroke-width="1.4245"/>
<path id="Vector_15" d="M318.126 110.746C320.684 110.804 323.168 111.781 325.217 113.554C366.42 149.198 408.466 166.829 451.624 166.829C454.864 166.829 457.981 168.304 460.27 170.947C462.558 173.59 463.852 177.177 463.852 180.914V279.053C463.852 325.816 451.856 366.381 428.171 400.566C404.485 434.751 369.109 462.556 322.355 483.792C319.477 485.092 316.281 485.092 313.403 483.792C266.649 462.548 231.273 434.743 207.588 400.557C183.902 366.372 171.906 325.799 171.906 279.053V180.914C171.906 177.177 173.192 173.59 175.488 170.947C177.777 168.304 180.894 166.829 184.134 166.829C227.292 166.829 269.338 149.198 310.541 113.554C312.655 111.723 315.234 110.737 317.879 110.737H318.126V110.746Z" stroke="#000000" stroke-width="1.3934"/>
<path id="Vector_16" d="M318.14 98.9492C320.857 99.0155 323.502 100.051 325.675 101.94C369.471 139.829 414.169 158.57 460.044 158.57C463.488 158.57 466.801 160.136 469.235 162.945C471.669 165.754 473.042 169.565 473.042 173.542V277.862C473.042 327.566 460.291 370.691 435.116 407.03C409.941 443.37 372.334 472.923 322.638 495.501C319.579 496.884 316.178 496.884 313.12 495.501C263.416 472.923 225.816 443.361 200.641 407.022C175.459 370.683 162.715 327.557 162.715 277.862V173.542C162.715 169.573 164.081 165.754 166.522 162.945C168.956 160.136 172.269 158.57 175.713 158.57C221.588 158.57 266.286 139.821 310.083 101.94C312.328 99.9932 315.074 98.9492 317.886 98.9492H318.147H318.14Z" stroke="#000000" stroke-width="1.3623"/>
<path id="Vector_17" d="M318.154 87.1621C321.031 87.2284 323.828 88.3303 326.139 90.3271C372.529 130.461 419.879 150.313 468.478 150.313C472.126 150.313 475.635 151.978 478.214 154.952C480.794 157.927 482.247 161.97 482.247 166.179V276.689C482.247 329.342 468.74 375.019 442.068 413.512C415.396 452.006 375.566 483.316 322.92 507.227C319.679 508.694 316.083 508.694 312.843 507.227C260.196 483.308 220.366 451.997 193.694 413.504C167.022 375.002 153.516 329.325 153.516 276.689V166.179C153.516 161.97 154.969 157.927 157.548 154.952C160.127 151.978 163.637 150.313 167.284 150.313C215.876 150.313 263.226 130.453 309.624 90.3271C312.007 88.264 314.913 87.1621 317.885 87.1621H318.161H318.154Z" stroke="#000000" stroke-width="1.32497"/>
<path id="Vector_18" d="M318.169 75.3823C321.206 75.4486 324.163 76.6169 326.604 78.7213C375.596 121.101 425.591 142.062 476.907 142.071C480.758 142.071 484.464 143.827 487.188 146.967C489.913 150.108 491.446 154.374 491.446 158.824V275.514C491.446 331.117 477.184 379.345 449.022 420.001C420.861 460.649 378.8 493.708 323.204 518.961C319.782 520.511 315.982 520.511 312.56 518.961C256.964 493.708 214.903 460.641 186.742 419.993C158.581 379.337 144.318 331.108 144.318 275.514V158.824C144.318 154.383 145.851 150.116 148.576 146.967C151.301 143.827 155.006 142.071 158.857 142.071C210.166 142.071 260.168 121.101 309.16 78.7213C311.674 76.5423 314.74 75.374 317.886 75.374H318.184L318.169 75.3823Z" stroke="#000000" stroke-width="1.29387"/>
<path id="Vector_19" d="M318.184 63.586C321.388 63.6606 324.497 64.8868 327.062 67.1073C378.648 111.732 431.301 133.812 485.328 133.812C489.382 133.812 493.284 135.66 496.154 138.966C499.024 142.272 500.637 146.77 500.637 151.443V274.323C500.637 332.867 485.619 383.664 455.961 426.466C426.303 469.268 382.012 504.083 323.473 530.67C319.869 532.303 315.866 532.303 312.269 530.67C253.731 504.074 209.44 469.26 179.782 426.458C150.123 383.647 135.106 332.859 135.106 274.323V151.443C135.106 146.762 136.718 142.272 139.588 138.966C142.458 135.66 146.36 133.812 150.414 133.812C204.448 133.812 257.095 111.732 308.68 67.1073C311.332 64.8205 314.558 63.586 317.871 63.586H318.184Z" stroke="#000000" stroke-width="1.26277"/>
<path id="Vector_20" d="M318.198 51.8061C321.562 51.8807 324.831 53.1732 327.527 55.5014C381.706 102.371 437.012 125.562 493.763 125.562C498.021 125.562 502.118 127.501 505.134 130.981C508.149 134.452 509.842 139.175 509.842 144.088V273.148C509.842 334.642 494.068 387.991 462.921 432.947C431.773 477.903 385.252 514.466 323.763 542.396C319.978 544.111 315.778 544.111 311.993 542.396C250.504 514.466 203.99 477.895 172.835 432.939C141.688 387.974 125.914 334.633 125.914 273.148V144.088C125.914 139.175 127.607 134.452 130.622 130.981C133.637 127.509 137.728 125.562 141.993 125.562C198.744 125.562 254.043 102.371 308.229 55.5014C311.012 53.0986 314.405 51.7979 317.878 51.7979H318.205L318.198 51.8061Z" stroke="#000000" stroke-width="1.23167"/>
<path id="Vector_21" d="M318.219 40.0181C321.743 40.1009 325.165 41.4514 327.992 43.8956C384.772 93.0109 442.722 117.312 502.191 117.312C506.659 117.312 510.946 119.35 514.107 122.987C517.267 126.633 519.04 131.571 519.04 136.724V271.974C519.04 336.417 502.511 392.318 469.867 439.428C437.222 486.538 388.478 524.858 324.046 554.121C320.087 555.919 315.676 555.919 311.709 554.121C247.278 524.849 198.526 486.53 165.889 439.411C133.245 392.293 116.716 336.392 116.716 271.965V136.716C116.716 131.571 118.489 126.624 121.649 122.979C124.81 119.342 129.096 117.303 133.565 117.303C193.033 117.303 250.984 93.0026 307.764 43.8873C310.678 41.3686 314.238 40.0098 317.878 40.0098H318.219V40.0181Z" stroke="#000000" stroke-width="1.20056"/>
<path id="Vector_22" d="M318.234 28.2227C321.918 28.3055 325.5 29.7223 328.457 32.2742C387.831 83.6348 448.433 109.046 510.627 109.054C515.298 109.054 519.781 111.183 523.087 114.986C526.386 118.798 528.246 123.968 528.246 129.353V270.783C528.246 338.168 510.961 396.629 476.827 445.893C442.693 495.158 391.718 535.226 324.337 565.84C320.196 567.721 315.582 567.721 311.441 565.84C244.06 535.234 193.084 495.158 158.951 445.885C124.817 396.612 107.532 338.151 107.532 270.783V129.353C107.532 123.968 109.385 118.798 112.691 114.986C115.989 111.183 120.479 109.054 125.151 109.054C187.345 109.054 247.94 83.6431 307.321 32.2742C310.373 29.6395 314.085 28.2227 317.9 28.2227H318.256H318.234Z" stroke="#000000" stroke-width="1.16946"/>
<path id="Vector_23" d="M318.249 16.4427C322.092 16.5339 325.834 18.0086 328.915 20.6682C390.883 74.2742 454.137 100.795 519.048 100.804C523.923 100.804 528.602 103.024 532.053 106.993C535.497 110.97 537.437 116.364 537.437 121.989V269.6C537.437 339.934 519.396 400.947 483.766 452.374C448.143 503.793 394.93 545.617 324.606 577.565C320.283 579.529 315.466 579.529 311.143 577.565C240.819 545.617 187.606 503.793 151.983 452.366C116.353 400.939 98.3124 339.926 98.3124 269.6V121.989C98.3124 116.372 100.252 110.97 103.696 106.993C107.14 103.024 111.826 100.804 116.702 100.804C181.612 100.804 244.866 74.2742 306.834 20.6682C310.017 17.9175 313.897 16.4344 317.871 16.4344H318.241L318.249 16.4427Z" stroke="#000000" stroke-width="1.13836"/>
<path id="Vector_24" d="M318.263 4.68652C322.274 4.77766 326.168 6.31874 329.38 9.09431C393.949 64.9456 459.848 92.5854 527.476 92.5854C532.554 92.5854 537.437 94.897 541.026 99.0397C544.615 103.182 546.635 108.808 546.635 114.657V268.458C546.635 341.741 527.839 405.314 490.719 458.887C453.599 512.46 398.163 556.032 324.89 589.323C320.385 591.369 315.372 591.369 310.86 589.323C237.586 556.032 182.15 512.46 145.03 458.879C107.91 405.298 89.1143 341.725 89.1143 268.458V114.657C89.1143 108.8 91.1341 103.174 94.7233 99.0397C98.3125 94.9053 103.195 92.5854 108.274 92.5854C175.902 92.5854 241.808 64.9456 306.37 9.09431C309.683 6.2276 313.73 4.68652 317.871 4.68652H318.256H318.263Z" stroke="#000000" stroke-width="1.10725"/>
<path id="Vector_25" d="M318.277 -7.13331C322.448 -7.03388 326.495 -5.44311 329.837 -2.55153C397 55.5451 465.551 84.2951 535.903 84.2951C541.185 84.2951 546.264 86.7061 549.998 91.0062C553.733 95.3145 555.833 101.164 555.833 107.254V267.235C555.833 343.46 536.281 409.593 497.665 465.32C459.055 521.047 401.388 566.376 325.165 601C320.479 603.129 315.262 603.129 310.576 601C234.36 566.376 176.693 521.047 138.076 465.312C99.4599 409.576 79.9082 343.451 79.9082 267.235V107.254C79.9082 101.164 82.008 95.3145 85.7425 91.0062C89.477 86.7061 94.5556 84.2951 99.8377 84.2951C170.19 84.2951 238.741 55.5451 305.904 -2.55153C309.355 -5.53424 313.555 -7.1416 317.87 -7.1416H318.277V-7.13331Z" stroke="#000000" stroke-width="1.07615"/>
<path id="Vector_26" d="M318.292 -18.9214C322.622 -18.822 326.829 -17.1649 330.302 -14.1656C400.059 46.1763 471.261 76.0365 544.331 76.0365C549.817 76.0365 555.092 78.5387 558.972 83.0045C562.851 87.4786 565.031 93.5517 565.031 99.8817V266.052C565.031 345.226 544.724 413.911 504.618 471.793C464.512 529.674 404.622 576.751 325.456 612.717C320.588 614.93 315.168 614.93 310.3 612.717C231.134 576.751 171.237 529.674 131.138 471.784C91.0319 413.895 70.7246 345.21 70.7246 266.052V99.8817C70.7246 93.5517 72.9043 87.4786 76.7841 83.0045C80.6639 78.5304 85.9387 76.0365 91.4242 76.0365C164.494 76.0365 235.697 46.1763 305.454 -14.1656C309.036 -17.2643 313.402 -18.9297 317.878 -18.9297H318.299L318.292 -18.9214Z" stroke="#000000" stroke-width="1.04505"/>
<path id="Vector_27" d="M318.307 -30.6777C322.797 -30.57 327.164 -28.855 330.76 -25.7397C403.118 36.8558 476.965 67.818 552.76 67.8263C558.449 67.8263 563.92 70.4196 567.945 75.0594C571.97 79.6992 574.23 86.0043 574.23 92.5663V264.917C574.23 347.041 553.167 418.278 511.564 478.322C469.969 538.357 407.841 587.183 325.732 624.491C320.683 626.786 315.066 626.786 310.017 624.491C227.909 587.191 165.781 538.349 124.185 478.314C82.5897 418.27 61.5195 347.025 61.5195 264.926V92.5745C61.5195 86.0126 63.7791 79.7074 67.8043 75.0677C71.8294 70.4279 77.3004 67.8346 82.9893 67.8346C158.777 67.8346 232.631 36.8641 304.989 -25.7314C308.702 -28.9461 313.236 -30.6694 317.878 -30.6694H318.314L318.307 -30.6777Z" stroke="#000000" stroke-width="1.01395"/>
<path id="Vector_28" d="M318.329 -42.4648C322.979 -42.3571 327.506 -40.5758 331.233 -37.3528C406.185 27.488 482.684 59.5605 561.196 59.5688C567.088 59.5688 572.755 62.2532 576.926 67.0587C581.096 71.8641 583.436 78.393 583.436 85.1952V263.735C583.436 348.801 561.617 422.598 518.525 484.796C475.433 546.985 411.082 597.567 326.023 636.21C320.792 638.579 314.973 638.579 309.741 636.21C224.683 597.567 160.332 546.977 117.24 484.787C74.1476 422.59 52.3291 348.792 52.3291 263.744V85.2035C52.3291 78.4096 54.6686 71.8807 58.8391 67.067C63.0095 62.2615 68.6767 59.5771 74.5691 59.5771C153.081 59.5771 229.58 27.4963 304.532 -37.3445C308.383 -40.6752 313.076 -42.4648 317.886 -42.4648H318.337H318.329Z" stroke="#000000" stroke-width="0.982844"/>
<path id="Vector_29" d="M318.343 -54.2529C323.153 -54.1452 327.832 -52.2976 331.69 -48.9586C409.243 18.1275 488.387 51.3185 569.616 51.3185C575.712 51.3185 581.575 54.1023 585.891 59.0652C590.206 64.0364 592.626 70.7972 592.626 77.8315V262.552C592.626 350.567 570.052 426.925 525.463 491.268C480.881 555.612 414.3 607.942 326.292 647.927C320.879 650.38 314.856 650.38 309.443 647.927C221.442 607.95 154.853 555.604 110.271 491.26C65.6898 426.908 43.1084 350.551 43.1084 262.552V77.8315C43.1084 70.7972 45.5351 64.0447 49.8436 59.0652C54.1594 54.094 60.0154 51.3185 66.1185 51.3185C147.348 51.3185 226.499 18.1275 304.044 -48.9586C308.026 -52.4053 312.879 -54.2529 317.856 -54.2529H318.321H318.343Z" stroke="#000000" stroke-width="0.945521"/>
<path id="Vector_30" d="M318.358 -66.0328C323.335 -65.9168 328.166 -64.0112 332.155 -60.5645C412.302 8.767 494.105 43.0682 578.051 43.0682C584.351 43.0682 590.41 45.9432 594.871 51.0801C599.325 56.217 601.832 63.2015 601.832 70.4677V261.378C601.832 352.342 578.502 431.251 532.424 497.749C486.345 564.247 417.54 618.334 326.59 659.653C320.995 662.188 314.776 662.188 309.181 659.653C218.231 618.334 149.419 564.239 103.348 497.741C57.2693 431.235 33.9395 352.326 33.9395 261.378V70.4677C33.9395 63.2015 36.4462 56.217 40.9 51.0801C45.3538 45.9432 51.4133 43.0682 57.7198 43.0682C141.666 43.0682 223.469 8.767 303.616 -60.5645C307.728 -64.1272 312.749 -66.041 317.893 -66.041H318.372L318.358 -66.0328Z" stroke="#000000" stroke-width="0.914418"/>
<path id="Vector_31" d="M318.373 -77.8291C323.509 -77.7131 328.501 -75.7412 332.613 -72.1868C415.354 -0.610023 499.809 34.8014 586.473 34.8014C592.982 34.8014 599.231 37.7675 603.837 43.0701C608.436 48.381 611.023 55.581 611.023 63.0874V260.178C611.023 354.084 586.938 435.553 539.363 504.214C491.795 572.866 420.752 628.701 326.859 671.362C321.083 673.98 314.66 673.98 308.884 671.362C214.983 628.709 143.948 572.858 96.3801 504.206C48.8124 435.545 24.7197 354.076 24.7197 260.187V63.0957C24.7197 55.5892 27.3063 48.381 31.9054 43.0784C36.5045 37.7758 42.7602 34.8097 49.2701 34.8097C135.934 34.8097 220.389 -0.610042 303.129 -72.1785C307.38 -75.8489 312.56 -77.8291 317.871 -77.8291H318.373Z" stroke="#000000" stroke-width="0.883316"/>
<path id="Vector_32" d="M318.387 -89.6172C323.683 -89.4929 328.827 -87.463 333.078 -83.7926C418.419 -9.97052 505.519 26.5511 594.9 26.5594C601.614 26.5594 608.058 29.6167 612.81 35.085C617.554 40.5616 620.228 47.9935 620.228 55.732V259.012C620.228 355.867 595.387 439.889 546.323 510.703C497.265 581.509 423.992 639.101 327.149 683.096C321.191 685.797 314.565 685.797 308.607 683.096C211.764 639.101 138.491 581.501 89.4338 510.687C40.3693 439.872 15.5283 355.842 15.5283 259.012V55.732C15.5283 47.9935 18.1948 40.5616 22.9392 35.085C27.6836 29.6167 34.1355 26.5594 40.8489 26.5594C130.237 26.5594 217.337 -9.97052 302.671 -83.7926C307.052 -87.579 312.4 -89.6172 317.871 -89.6172H318.387Z" stroke="#000000" stroke-width="0.852213"/>
<path id="Vector_33" d="M318.402 -101.396C323.858 -101.272 329.162 -99.1755 333.536 -95.3974C421.471 -19.33 511.223 18.3019 603.329 18.3102C610.245 18.3102 616.893 21.4586 621.783 27.1009C626.673 32.7432 629.427 40.3988 629.427 48.3775V257.838C629.427 357.643 603.83 444.225 553.269 517.185C502.715 590.146 427.218 649.485 327.425 694.822C321.286 697.606 314.464 697.606 308.324 694.822C208.532 649.485 133.035 590.137 82.481 517.169C31.9271 444.2 6.32324 357.618 6.32324 257.838V48.3775C6.32324 40.4071 9.06964 32.7432 13.9594 27.1009C18.8491 21.4669 25.4971 18.3102 32.4139 18.3102C124.52 18.3102 214.271 -19.33 302.207 -95.3974C306.719 -99.2998 312.226 -101.404 317.871 -101.404H318.402V-101.396Z" stroke="#000000" stroke-width="0.82111"/>
<path id="Vector_34" d="M318.416 -113.184C324.032 -113.052 329.496 -110.897 334.001 -107.012C424.53 -28.6988 516.934 10.0516 611.757 10.0516C618.877 10.0516 625.721 13.2994 630.756 19.0991C635.791 24.9071 638.625 32.7948 638.625 41.0055V256.647C638.625 359.393 612.265 448.535 560.222 523.65C508.179 598.764 430.451 659.86 327.709 706.531C321.388 709.398 314.362 709.398 308.041 706.531C205.306 659.86 127.578 598.756 75.5279 523.633C23.4773 448.51 -2.875 359.369 -2.875 256.647V41.0055C-2.875 32.7948 -0.0414189 24.9071 4.98636 19.0991C10.0214 13.2994 16.8656 10.0516 23.9858 10.0516C118.809 10.0516 211.213 -28.6988 301.742 -107.012C306.392 -111.03 312.059 -113.192 317.871 -113.192H318.416V-113.184Z" stroke="#000000" stroke-width="0.790008"/>
<path id="Vector_35" d="M318.438 -124.964C324.221 -124.831 329.837 -122.619 334.465 -118.609C427.596 -38.051 522.644 1.80962 620.192 1.80962C627.515 1.80962 634.556 5.14861 639.736 11.114C644.916 17.0877 647.83 25.1991 647.83 33.6418V255.473C647.83 361.168 620.715 452.862 567.175 530.131C513.635 607.399 433.677 670.244 327.999 718.257C321.496 721.206 314.267 721.206 307.764 718.257C202.079 670.244 122.122 607.391 68.5888 530.114C15.0487 452.837 -12.0664 361.144 -12.0664 255.464V33.6335C-12.0664 25.1908 -9.1529 17.0712 -3.97254 11.1057C1.20782 5.14032 8.24816 1.80133 15.5719 1.80133C113.12 1.80133 208.168 -38.0593 301.298 -118.617C306.079 -122.752 311.913 -124.98 317.885 -124.98H318.445L318.438 -124.964Z" stroke="#000000" stroke-width="0.758905"/>
<path id="Vector_36" d="M318.453 -136.76C324.396 -136.619 330.165 -134.349 334.931 -130.231C430.655 -47.4281 528.355 -6.45721 628.62 -6.44892C636.147 -6.44892 643.384 -3.01881 648.709 3.1206C654.035 9.26001 657.029 17.595 657.029 26.278V254.29C657.029 362.935 629.158 457.18 574.128 536.612C519.099 616.035 436.911 680.635 328.283 729.982C321.599 733.015 314.173 733.015 307.489 729.982C198.861 680.635 116.673 616.026 61.6434 536.595C6.61393 457.164 -21.2568 362.91 -21.2568 254.29V26.278C-21.2568 17.595 -18.2634 9.26001 -12.9377 3.1206C-7.61207 -3.01053 -0.375559 -6.44892 7.15158 -6.44892C107.417 -6.44892 205.117 -47.4198 300.841 -130.231C305.752 -134.482 311.746 -136.769 317.893 -136.769H318.467L318.453 -136.76Z" stroke="#000000" stroke-width="0.727802"/>
<path id="Vector_37" d="M318.466 -148.557C324.57 -148.416 330.498 -146.079 335.388 -141.846C433.706 -56.7968 534.058 -14.7158 637.04 -14.7075C644.771 -14.7075 652.204 -11.1862 657.675 -4.88109C663.146 1.42403 666.219 9.99103 666.219 18.906V253.107C666.219 364.693 637.592 461.499 581.066 543.084C524.54 624.662 440.129 691.01 328.551 741.7C321.685 744.815 314.056 744.815 307.19 741.7C195.613 691.01 111.201 624.653 54.6751 543.068C-1.85115 461.482 -30.4775 364.669 -30.4775 253.107V18.906C-30.4775 9.99103 -27.4042 1.42403 -21.9332 -4.88109C-16.4622 -11.1779 -9.03681 -14.7075 -1.29897 -14.7075C101.683 -14.7075 202.036 -56.7885 300.353 -141.846C305.403 -146.212 311.557 -148.557 317.871 -148.557H318.459H318.466Z" stroke="#000000" stroke-width="0.6967"/>
<path id="Vector_38" d="M318.481 -160.335C324.744 -160.186 330.833 -157.792 335.853 -153.45C436.772 -66.1563 539.769 -22.965 645.476 -22.9567C653.41 -22.9567 661.039 -19.3361 666.655 -12.8735C672.264 -6.4027 675.424 2.38801 675.424 11.5433V251.925C675.424 366.461 646.042 465.827 588.027 549.558C530.011 633.289 443.369 701.395 328.842 753.418C321.794 756.616 313.962 756.616 306.922 753.418C192.401 701.395 105.752 633.281 47.7365 549.542C-10.2791 465.802 -39.6611 366.436 -39.6611 251.925V11.5433C-39.6611 2.38801 -36.5079 -6.4027 -30.8916 -12.8735C-25.2825 -19.3444 -17.6537 -22.9567 -9.7124 -22.9567C95.9945 -22.9567 198.991 -66.1563 299.91 -153.45C305.091 -157.933 311.412 -160.344 317.885 -160.344H318.496L318.481 -160.335Z" stroke="#000000" stroke-width="0.665597"/>
<path id="Vector_39" d="M318.496 -172.124C324.919 -171.975 331.167 -169.514 336.311 -165.065C439.824 -75.517 545.473 -31.2155 653.897 -31.2155C662.034 -31.2155 669.859 -27.5036 675.621 -20.8671C681.375 -14.2306 684.616 -5.20787 684.616 4.17939V250.75C684.616 368.236 654.478 470.153 594.973 556.039C535.468 641.925 446.588 711.778 329.118 765.144C321.889 768.425 313.853 768.425 306.631 765.144C189.161 711.778 100.289 641.916 40.7763 556.022C-18.736 470.129 -48.8664 368.203 -48.8664 250.75V4.17939C-48.8664 -5.20787 -45.6332 -14.2223 -39.8716 -20.8671C-34.1172 -27.5036 -26.2922 -31.2155 -18.1475 -31.2155C90.2767 -31.2155 195.926 -75.5253 299.438 -165.065C304.749 -169.663 311.238 -172.132 317.878 -172.132H318.503L318.496 -172.124Z" stroke="#000000" stroke-width="0.634494"/>
<path id="Vector_40" d="M318.51 -183.912C325.093 -183.763 331.494 -181.235 336.776 -176.67C442.882 -84.8773 551.183 -39.4656 662.332 -39.4656C670.673 -39.4656 678.694 -35.6626 684.601 -28.8603C690.5 -22.0581 693.821 -12.8117 693.821 -3.18418V249.567C693.821 369.994 662.928 474.472 601.926 562.52C540.924 650.56 449.821 722.17 329.408 776.869C322.005 780.233 313.766 780.233 306.355 776.869C185.942 722.17 94.8392 650.552 33.8374 562.504C-27.1644 474.456 -58.0576 369.978 -58.0576 249.567V-3.18418C-58.0576 -12.8034 -54.7372 -22.0498 -48.8376 -28.8603C-42.9379 -35.6626 -34.9168 -39.4656 -26.5686 -39.4656C84.573 -39.4656 192.874 -84.8856 298.987 -176.67C304.437 -181.385 311.077 -183.92 317.892 -183.92H318.532L318.51 -183.912Z" stroke="#000000" stroke-width="0.597171"/>
<path id="Vector_41" d="M318.532 -195.7C325.282 -195.542 331.836 -192.957 337.241 -188.284C445.949 -94.2461 556.894 -47.7241 670.76 -47.7158C679.312 -47.7158 687.529 -43.8217 693.574 -36.8538C699.619 -29.8775 703.02 -20.4157 703.02 -10.5562V248.385C703.02 371.761 671.371 478.791 608.879 568.993C546.388 659.187 453.055 732.545 329.692 788.587C322.107 792.033 313.664 792.033 306.079 788.587C182.717 732.545 89.3833 659.178 26.8921 568.976C-35.6065 478.766 -67.248 371.736 -67.248 248.385V-10.5562C-67.248 -20.4157 -63.8478 -29.8858 -57.8028 -36.8538C-51.7578 -43.8217 -43.5405 -47.7158 -34.9889 -47.7158C78.8773 -47.7158 189.823 -94.2461 298.53 -188.284C304.11 -193.115 310.918 -195.708 317.893 -195.708H318.547L318.532 -195.7Z" stroke="#000000" stroke-width="0.566068"/>
<path id="Vector_42" d="M318.547 -207.488C325.456 -207.33 332.17 -204.679 337.706 -199.898C449.008 -103.615 562.612 -55.9826 679.188 -55.9744C687.943 -55.9744 696.357 -51.9809 702.547 -44.8555C708.738 -37.7136 712.218 -28.0197 712.218 -17.9282V247.193C712.218 373.511 679.813 483.101 615.825 575.457C551.837 667.814 456.28 742.92 329.968 800.296C322.201 803.817 313.555 803.817 305.788 800.296C179.484 742.912 83.9195 667.797 19.9315 575.441C-44.0565 483.076 -76.4609 373.495 -76.4609 247.193V-17.9282C-76.4609 -28.0197 -72.9807 -37.7218 -66.7905 -44.8555C-60.6002 -51.9891 -52.1866 -55.9744 -43.4316 -55.9744C73.1519 -55.9744 186.749 -103.615 298.051 -199.898C303.761 -204.845 310.736 -207.496 317.878 -207.496H318.547V-207.488Z" stroke="#000000" stroke-width="0.534966"/>
<path id="Vector_43" d="M318.561 -219.267C325.631 -219.101 332.504 -216.392 338.164 -211.495C452.059 -112.966 568.316 -64.2236 687.616 -64.2153C696.575 -64.2153 705.185 -60.1307 711.52 -52.8313C717.856 -45.5237 721.416 -35.6062 721.416 -25.2744V246.036C721.416 375.304 688.256 487.454 622.778 581.956C557.301 676.466 459.506 753.321 330.252 812.039C322.303 815.643 313.461 815.643 305.505 812.039C176.25 753.321 78.463 676.45 12.9783 581.931C-52.5063 487.412 -85.6592 375.271 -85.6592 246.028V-25.2827C-85.6592 -35.6145 -82.099 -45.532 -75.7635 -52.8396C-69.4279 -60.139 -60.8182 -64.2236 -51.8597 -64.2236C67.4411 -64.2236 183.69 -112.974 297.593 -211.503C303.442 -216.557 310.569 -219.283 317.878 -219.283H318.561V-219.267Z" stroke="#000000" stroke-width="0.503863"/>
<path id="Vector_44" d="M318.576 -231.023C325.805 -230.857 332.831 -228.082 338.629 -223.077C455.125 -122.303 574.026 -72.4421 696.044 -72.4421C705.206 -72.4421 714.012 -68.2663 720.493 -60.8013C726.974 -53.3279 730.614 -43.1784 730.614 -32.6147V244.877C730.614 377.094 696.698 491.796 629.724 588.46C562.75 685.125 462.732 763.736 330.528 823.788C322.398 827.475 313.352 827.475 305.222 823.788C173.024 763.728 72.9993 685.1 6.03242 588.436C-60.9417 491.763 -94.8574 377.061 -94.8574 244.877V-32.6147C-94.8574 -43.1784 -91.2174 -53.3279 -84.7365 -60.8013C-78.2556 -68.2663 -69.4497 -72.4421 -60.2878 -72.4421C61.7304 -72.4421 180.632 -122.303 297.128 -223.077C303.107 -228.247 310.402 -231.031 317.878 -231.031H318.576V-231.023Z" stroke="#000000" stroke-width="0.47276"/>
<path id="Vector_45" d="M318.59 -242.811C325.979 -242.637 333.165 -239.812 339.086 -234.683C458.176 -131.664 579.729 -80.6924 704.472 -80.6924C713.837 -80.6924 722.839 -76.4255 729.466 -68.7947C736.092 -61.1556 739.812 -50.7824 739.812 -39.9784V243.694C739.812 378.852 705.141 496.114 636.677 594.933C568.213 693.752 465.965 774.111 330.818 835.505C322.506 839.275 313.257 839.275 304.945 835.505C169.798 774.111 67.5496 693.727 -0.913935 594.908C-69.3775 496.081 -104.049 378.827 -104.049 243.694V-39.9784C-104.049 -50.7741 -100.329 -61.1556 -93.7026 -68.7947C-87.0764 -76.4255 -78.0744 -80.6924 -68.7091 -80.6924C56.0337 -80.6924 177.58 -131.664 296.677 -234.683C302.795 -239.969 310.249 -242.819 317.892 -242.819H318.612L318.59 -242.811Z" stroke="#000000" stroke-width="0.441658"/>
<path id="Vector_46" d="M318.605 -254.631C326.154 -254.457 333.499 -251.565 339.551 -246.329C461.243 -141.064 585.441 -88.9827 712.901 -88.9744C722.469 -88.9744 731.667 -84.608 738.439 -76.8116C745.203 -69.0068 749.01 -58.4099 749.01 -47.3739V242.488C749.01 380.596 713.583 500.409 643.623 601.382C573.663 702.355 469.191 784.471 331.094 847.199C322.601 851.052 313.156 851.052 304.662 847.199C166.573 784.463 62.0863 702.331 -7.8667 601.358C-77.827 500.376 -113.254 380.562 -113.254 242.479V-47.3822C-113.254 -58.4182 -109.447 -69.0151 -102.682 -76.8199C-95.9182 -84.6163 -86.72 -88.9827 -77.144 -88.9827C50.3161 -88.9827 174.514 -141.072 296.205 -246.337C302.453 -251.739 310.075 -254.647 317.878 -254.647H318.612L318.605 -254.631Z" stroke="#000000" stroke-width="0.410555"/>
<path id="Vector_47" d="M318.619 -266.387C326.335 -266.205 333.826 -263.255 340.009 -257.911C464.294 -150.401 591.143 -97.2095 721.321 -97.2012C731.093 -97.2012 740.487 -92.7437 747.404 -84.7816C754.314 -76.8111 758.201 -65.9822 758.201 -54.7142V241.328C758.201 382.386 722.018 504.751 650.569 607.879C579.119 711.006 472.409 794.87 331.37 858.948C322.695 862.884 313.046 862.884 304.371 858.948C163.332 794.878 56.622 710.989 -14.8277 607.862C-86.2774 504.726 -122.46 382.361 -122.46 241.328V-54.7142C-122.46 -65.9822 -118.573 -76.8111 -111.663 -84.7816C-104.754 -92.7437 -95.3593 -97.2012 -85.5799 -97.2012C44.5975 -97.2012 171.447 -150.401 295.732 -257.911C302.111 -263.429 309.893 -266.396 317.87 -266.396H318.619V-266.387Z" stroke="#000000" stroke-width="0.379452"/>
<path id="Vector_48" d="M318.641 -278.175C326.517 -277.993 334.168 -274.977 340.481 -269.517C467.36 -159.762 596.862 -105.46 729.764 -105.451C739.739 -105.451 749.33 -100.903 756.385 -92.7749C763.44 -84.6388 767.407 -73.5861 767.407 -62.0778V240.154C767.407 384.152 730.469 509.087 657.522 614.36C584.583 719.641 475.643 805.261 331.654 870.674C322.797 874.692 312.945 874.692 304.088 870.674C160.099 805.261 51.166 719.625 -21.7804 614.343C-94.7268 509.053 -131.665 384.127 -131.665 240.154V-62.0778C-131.665 -73.5861 -127.698 -84.6388 -120.643 -92.7749C-113.588 -100.903 -103.998 -105.451 -94.0221 -105.451C38.8799 -105.451 168.374 -159.762 295.26 -269.517C301.778 -275.151 309.719 -278.184 317.864 -278.184H318.626L318.641 -278.175Z" stroke="#000000" stroke-width="0.34835"/>
<path id="Vector_49" d="M318.656 -289.971C326.691 -289.788 334.502 -286.706 340.939 -281.139C470.419 -169.138 602.565 -113.717 738.185 -113.717C748.364 -113.717 758.151 -109.078 765.351 -100.776C772.551 -92.4738 776.598 -81.1892 776.598 -69.4489V238.963C776.598 385.912 738.904 513.398 664.468 620.833C590.032 728.269 478.869 815.638 331.937 882.392C322.899 886.494 312.85 886.494 303.812 882.392C156.88 815.646 45.7096 728.252 -28.719 620.817C-103.155 513.373 -140.849 385.887 -140.849 238.972V-69.4406C-140.849 -81.1809 -136.802 -92.4655 -129.602 -100.767C-122.401 -109.061 -112.615 -113.709 -102.436 -113.709C33.1838 -113.709 165.33 -169.129 294.81 -281.13C301.458 -286.88 309.566 -289.971 317.871 -289.971H318.648H318.656Z" stroke="#000000" stroke-width="0.317247"/>
<path id="Vector_50" d="M318.671 -301.759C326.866 -301.568 334.837 -298.428 341.405 -292.744C473.478 -178.498 608.277 -121.968 746.62 -121.959C757.003 -121.959 766.993 -117.228 774.331 -108.761C781.677 -100.293 785.804 -88.7849 785.804 -76.8043V237.797C785.804 387.695 747.354 517.733 671.422 627.323C595.496 736.912 482.095 826.038 332.221 894.126C323.001 898.31 312.749 898.31 303.529 894.126C153.648 826.038 40.2536 736.896 -35.6717 627.306C-111.604 517.708 -150.054 387.67 -150.054 237.805V-76.796C-150.054 -88.7766 -145.927 -100.277 -138.581 -108.752C-131.236 -117.22 -121.253 -121.951 -110.87 -121.951C27.4662 -121.951 162.272 -178.482 294.345 -292.736C301.124 -298.602 309.4 -301.759 317.871 -301.759H318.663H318.671Z" stroke="#000000" stroke-width="0.286144"/>
<path id="Vector_51" d="M318.685 -313.539C327.04 -313.348 335.163 -310.142 341.862 -304.35C476.529 -187.859 613.979 -130.218 755.041 -130.21C765.634 -130.21 775.813 -125.379 783.296 -116.754C790.787 -108.121 794.994 -96.3889 794.994 -84.1763V236.606C794.994 389.445 755.789 522.043 678.367 633.787C600.945 745.531 485.321 836.404 332.496 905.835C323.095 910.102 312.64 910.102 303.238 905.835C150.414 836.404 34.7893 745.515 -42.6327 633.771C-120.055 522.018 -159.26 389.42 -159.26 236.606V-84.1763C-159.26 -96.3889 -155.053 -108.121 -147.562 -116.754C-140.071 -125.387 -129.892 -130.21 -119.306 -130.21C21.7549 -130.21 159.205 -187.85 293.873 -304.35C300.789 -310.332 309.217 -313.547 317.864 -313.547H318.677L318.685 -313.539Z" stroke="#000000" stroke-width="0.248821"/>
<path id="Vector_52" d="M318.699 -325.327C327.222 -325.128 335.497 -321.863 342.327 -315.964C479.595 -197.219 619.69 -138.476 763.469 -138.468C774.266 -138.468 784.641 -133.547 792.27 -124.748C799.906 -115.94 804.2 -103.985 804.2 -91.5401V235.431C804.2 391.22 764.239 526.37 685.32 640.268C606.409 754.166 488.554 846.796 332.78 917.561C323.197 921.911 312.545 921.911 302.962 917.561C147.188 846.796 29.3329 754.15 -49.5786 640.252C-128.497 526.345 -168.458 391.195 -168.458 235.431V-91.5401C-168.458 -103.985 -164.164 -115.949 -156.535 -124.748C-148.899 -133.547 -138.524 -138.468 -127.734 -138.468C16.0441 -138.468 156.146 -197.219 293.408 -315.964C300.455 -322.062 309.05 -325.335 317.856 -325.335H318.685L318.699 -325.327Z" stroke="#000000" stroke-width="0.217719"/>
<path id="Vector_53" d="M318.714 -337.123C327.396 -336.924 335.831 -333.594 342.784 -327.578C482.647 -206.588 625.394 -146.735 771.897 -146.727C782.897 -146.727 793.468 -141.714 801.242 -132.749C809.024 -123.776 813.398 -111.597 813.398 -98.9121V234.24C813.398 392.978 772.681 530.689 692.273 646.741C611.865 762.793 491.787 857.171 333.063 929.278C323.298 933.711 312.443 933.711 302.678 929.278C143.962 857.171 23.8764 762.777 -56.5318 646.724C-136.94 530.664 -177.656 392.954 -177.656 234.248V-98.9038C-177.656 -111.589 -173.282 -123.768 -165.508 -132.741C-157.727 -141.706 -147.155 -146.718 -136.163 -146.718C10.3334 -146.718 153.087 -206.588 292.95 -327.57C300.128 -333.784 308.891 -337.123 317.864 -337.123H318.706H318.714Z" stroke="#000000" stroke-width="0.186616"/>
<path id="Vector_54" d="M318.729 -348.902C327.571 -348.695 336.166 -345.306 343.25 -339.183C485.706 -215.948 631.112 -154.976 780.325 -154.976C791.529 -154.976 802.296 -149.872 810.216 -140.742C818.135 -131.603 822.597 -119.2 822.597 -106.275V233.067C822.597 394.746 781.125 535.016 699.22 653.223C617.322 771.429 495.006 867.564 333.347 941.005C323.4 945.52 312.342 945.52 302.396 941.005C140.729 867.564 18.4205 771.413 -63.4771 653.198C-145.375 534.983 -186.847 394.713 -186.847 233.067V-106.275C-186.847 -119.192 -182.393 -131.603 -174.473 -140.742C-166.554 -149.872 -155.779 -154.976 -144.583 -154.976C4.63766 -154.976 150.036 -215.956 292.493 -339.183C299.809 -345.505 308.724 -348.91 317.871 -348.91H318.729V-348.902Z" stroke="#000000" stroke-width="0.155513"/>
<path id="Vector_55" d="M318.75 -360.674C327.752 -360.466 336.5 -357.02 343.715 -350.781C488.772 -225.3 636.823 -163.218 788.76 -163.21C800.167 -163.21 811.131 -158.007 819.196 -148.711C827.261 -139.406 831.802 -126.771 831.802 -113.614V231.908C831.802 396.537 789.574 539.36 706.18 659.72C622.793 780.081 498.246 877.964 333.637 952.747C323.509 957.337 312.247 957.337 302.127 952.747C137.518 877.964 12.971 780.064 -70.4161 659.695C-153.818 539.326 -196.045 396.496 -196.045 231.9V-113.622C-196.045 -126.779 -191.511 -139.414 -183.447 -148.719C-175.382 -158.015 -164.418 -163.218 -153.011 -163.218C-1.07337 -163.218 146.977 -225.308 292.035 -350.789C299.482 -357.227 308.564 -360.698 317.871 -360.698H318.743L318.75 -360.674Z" stroke="#000000" stroke-width="0.124411"/>
<path id="Vector_56" d="M318.765 -372.47C327.927 -372.254 336.834 -368.75 344.18 -362.395C491.831 -234.668 642.534 -171.476 797.189 -171.468C808.799 -171.468 819.959 -166.174 828.169 -156.712C836.379 -147.242 841 -134.383 841 -120.986V230.717C841 398.296 798.017 543.67 713.126 666.185C628.242 788.7 501.472 888.339 333.914 964.456C323.604 969.129 312.146 969.129 301.836 964.456C134.277 888.339 7.50753 788.683 -77.3762 666.16C-162.26 543.629 -205.243 398.255 -205.243 230.709V-120.994C-205.243 -134.383 -200.63 -147.25 -192.419 -156.72C-184.209 -166.182 -173.049 -171.476 -161.439 -171.476C-6.78387 -171.476 143.919 -234.677 291.57 -362.403C299.148 -368.957 308.397 -372.486 317.871 -372.486H318.758L318.765 -372.47Z" stroke="#000000" stroke-width="0.093308"/>
</g>
</g>
</g>
<defs>
<radialGradient id="paint0_radial_0_4" cx="0" cy="0" r="1" gradientUnits="userSpaceOnUse" gradientTransform="translate(318 269) rotate(90) scale(161 311)">
<stop offset="0.403027" stop-color="#D9D9D9"/>
<stop offset="1" stop-color="#737373" stop-opacity="0"/>
</radialGradient>
</defs>
</svg>
