<svg preserveAspectRatio="none" width="100%" height="100%" overflow="visible" style="display: block;" viewBox="0 0 28 23.1535" fill="none" xmlns="http://www.w3.org/2000/svg">
<g id="svg">
<path id="icon" d="M16.4317 13.6961L18.8517 16.1156C19.1327 16.3969 19.4859 16.5362 19.9111 16.5333C20.3362 16.5305 20.6893 16.3885 20.9706 16.1072C21.2519 15.8261 21.3926 15.4729 21.3926 15.0477C21.3926 14.6224 21.2519 14.2693 20.9706 13.9882L18.5507 11.5767L20.9706 9.15681C21.2519 8.87574 21.3926 8.52258 21.3926 8.09733C21.3926 7.67207 21.2519 7.31891 20.9706 7.03784C20.6893 6.75653 20.3362 6.61588 19.9111 6.61588C19.4859 6.61588 19.1327 6.75653 18.8517 7.03784L16.4317 9.4574L14.0118 7.03784C13.7308 6.75653 13.379 6.61588 12.9566 6.61588C12.5341 6.61588 12.1824 6.75653 11.9013 7.03784C11.62 7.31891 11.4794 7.67207 11.4794 8.09733C11.4794 8.52258 11.62 8.87574 11.9013 9.15681L14.3124 11.5767L11.8928 13.9966C11.6115 14.2777 11.4723 14.6295 11.4751 15.0519C11.4779 15.4743 11.62 15.8261 11.9013 16.1072C12.1824 16.3885 12.5356 16.5291 12.9608 16.5291C13.3858 16.5291 13.739 16.3885 14.0203 16.1072L16.4317 13.6961ZM9.46834 23.1535C8.95795 23.1535 8.47448 23.0393 8.01795 22.8109C7.56118 22.5827 7.18508 22.2672 6.88966 21.8643L0.640351 13.4981C0.213452 12.931 2.5034e-06 12.2906 2.5034e-06 11.5767C2.5034e-06 10.8629 0.213452 10.2224 0.640351 9.65533L6.88966 1.28916C7.18508 0.886256 7.56118 0.570729 8.01795 0.342579C8.47448 0.114193 8.95795 0 9.46834 0H24.7894C25.678 0 26.4353 0.312941 27.0612 0.938825C27.6871 1.56471 28 2.32196 28 3.21056V19.9429C28 20.8315 27.6871 21.5888 27.0612 22.2146C26.4353 22.8405 25.678 23.1535 24.7894 23.1535H9.46834ZM9.45141 19.9514H24.7979V3.2021H9.45141L3.2021 11.5767L9.45141 19.9514Z" fill="#000000"/>
</g>
</svg>
