<svg width="20" height="20" viewBox="0 0 20 20" fill="none" xmlns="http://www.w3.org/2000/svg">
<g id="svg" transform="translate(2.54385 1.66665)">
<path id="icon" d="M9.77244 14.8574C9.58644 15.8411 8.68359 16.6665 7.46014 16.6667C6.22882 16.6667 5.32589 15.8408 5.13984 14.8574H9.77244ZM7.45214 0C7.73737 2.80083e-05 8.00145 0.0486586 8.2392 0.144351C7.70055 0.830049 7.37311 1.69628 7.37308 2.64045C7.37308 4.87815 9.19078 6.71275 11.4078 6.71275C11.8247 6.71272 12.2286 6.63547 12.6018 6.50385C12.6481 6.90593 12.6806 7.32074 12.7004 7.75369V7.75997C12.7363 8.21104 12.7935 8.70738 12.9073 9.15775C13.0202 9.60431 13.195 10.0291 13.4839 10.3161L13.4847 10.3179C13.8449 10.6693 14.2041 11.0146 14.4752 11.375C14.746 11.7349 14.9123 12.0879 14.9123 12.45C14.9122 12.7323 14.8071 12.9577 14.6245 13.1153C14.4391 13.2752 14.1579 13.378 13.7859 13.378H1.12551C0.749225 13.3779 0.468225 13.2748 0.284263 13.1153C0.103131 12.9581 3.2359e-05 12.7331 0 12.45C0 12.0873 0.16389 11.7338 0.432613 11.3741C0.701637 11.014 1.05892 10.6689 1.41865 10.3179L1.41954 10.317C1.7343 10.0082 1.91684 9.54471 2.03426 9.04926C2.1526 8.54988 2.21059 7.98955 2.25812 7.46588L2.25901 7.45602C2.3693 4.53063 3.20844 2.56515 5.15938 1.85325L5.24466 1.82187L5.27131 1.7349C5.57778 0.739091 6.37449 0 7.45214 0ZM11.4158 0.0636577C12.8062 0.0638166 13.9688 1.2225 13.9689 2.64045C13.9689 4.0508 12.8059 5.21708 11.4158 5.21724C10.0105 5.21724 8.8628 4.05159 8.8628 2.64045C8.86287 1.22172 10.0102 0.0636577 11.4158 0.0636577Z" fill="#0DC87D"/>
</g>
</svg>
