<svg preserveAspectRatio="none" width="100%" height="100%" overflow="visible" style="display: block;" viewBox="0 0 17.3574 17.3586" fill="none" xmlns="http://www.w3.org/2000/svg">
<path d="M14.5069 0.545317C14.1576 0.196166 13.684 2.42187e-05 13.1902 2.42187e-05C12.6963 2.42187e-05 12.2227 0.196166 11.8734 0.545317L10.6706 1.74886C10.4889 1.9307 10.4889 2.22543 10.6707 2.40722L14.9507 6.68717C15.1324 6.86897 15.4272 6.86901 15.609 6.68727L16.8116 5.48539C16.9847 5.31244 17.1219 5.1071 17.2155 4.88109C17.3092 4.65508 17.3574 4.41284 17.3574 4.1682C17.3574 3.92356 17.3092 3.68131 17.2155 3.4553C17.1219 3.22929 16.9847 3.02395 16.8116 2.851L14.5069 0.545317ZM13.6339 8.66227C13.8157 8.48044 13.8157 8.18565 13.6338 8.00383L9.35407 3.72406C9.17224 3.54223 8.87744 3.54223 8.69561 3.72406L1.42853 10.9911C1.01811 11.4016 0.74572 11.9296 0.649195 12.5019L0.0133338 16.2722C-0.0931894 16.9038 0.454983 17.4519 1.08658 17.3453L4.85704 16.7088C5.42926 16.6122 5.95721 16.3398 6.36754 15.9294L13.6339 8.66227Z" fill="white"/>
</svg>
