<svg preserveAspectRatio="none" width="100%" height="100%" overflow="visible" style="display: block;" viewBox="0 0 16.6667 16.6667" fill="none" xmlns="http://www.w3.org/2000/svg">
<g id="svg">
<path id="icon" d="M0.882324 9.60324C1.11649 9.60325 1.34133 9.69645 1.5068 9.86189C1.67212 10.0273 1.76545 10.2522 1.76545 10.4864C1.76545 11.4286 1.76543 12.0814 1.80736 12.5886C1.8472 13.0822 1.92255 13.3633 2.02814 13.5725L2.12402 13.7433L2.21588 13.8819C2.44163 14.1988 2.74122 14.4586 3.09096 14.6369C3.30036 14.7433 3.58083 14.8184 4.07803 14.8593C4.58646 14.9005 5.23924 14.9012 6.1803 14.9012C6.41443 14.9012 6.64003 14.9943 6.80558 15.1599L6.8644 15.2243C6.99299 15.3815 7.06341 15.5797 7.06343 15.7843C7.06335 15.9889 6.99287 16.1865 6.8644 16.3435L6.80558 16.408C6.64003 16.5736 6.41443 16.6667 6.1803 16.6667H6.15371C5.47833 16.6667 4.89907 16.6668 4.40356 16.6465H4.40195L3.93621 16.6183H3.9346C3.40301 16.5751 2.9249 16.4892 2.47937 16.2984L2.47695 16.2976L2.29324 16.2114L2.29001 16.2106C1.50088 15.8085 0.85897 15.1666 0.456875 14.3775C0.234212 13.9401 0.126034 13.4735 0.0692967 12.9569L0.0483465 12.7337V12.7321C0.000115842 12.1421 -1.80341e-08 11.4127 0 10.513V10.4864C0 10.2522 0.0932839 10.0273 0.258654 9.86189C0.424042 9.69655 0.648278 9.60333 0.882324 9.60324ZM15.7843 9.60324C16.0184 9.60333 16.2426 9.69655 16.408 9.86189C16.5734 10.0273 16.6667 10.2522 16.6667 10.4864V10.513C16.6667 11.1883 16.6668 11.7676 16.6465 12.2631V12.2647L16.6183 12.7305V12.7321C16.5751 13.2636 16.4891 13.7414 16.2984 14.1873L16.2976 14.1897L16.2114 14.3742L16.2106 14.3775C15.8083 15.1663 15.1665 15.8079 14.3775 16.2098C13.9401 16.4325 13.4735 16.5406 12.9569 16.5974L12.7337 16.6183H12.7321C12.1421 16.6665 11.4127 16.6667 10.513 16.6667H10.4864C10.2522 16.6667 10.0273 16.5734 9.86189 16.408C9.69655 16.2426 9.60333 16.0184 9.60324 15.7843C9.60326 15.5502 9.69645 15.3253 9.86189 15.1599C10.0273 14.9945 10.2522 14.9012 10.4864 14.9012C11.4286 14.9012 12.0814 14.9012 12.5886 14.8593C13.0847 14.8193 13.3662 14.7433 13.5757 14.6369C14.0324 14.4041 14.4041 14.0324 14.6369 13.5757C14.7432 13.3663 14.8184 13.0855 14.8593 12.5886C14.9004 12.0803 14.9012 11.4271 14.9012 10.4864C14.9012 10.2522 14.9945 10.0273 15.1599 9.86189C15.3253 9.69645 15.5502 9.60326 15.7843 9.60324ZM10.8167 10.961C10.9354 10.9589 11.0536 10.9812 11.1632 11.0254C11.273 11.0699 11.3729 11.1361 11.4565 11.2196C11.54 11.3031 11.607 11.4029 11.6515 11.5129C11.6958 11.6228 11.7173 11.7411 11.7152 11.8594C11.713 11.9777 11.6868 12.0945 11.6386 12.2027C11.6028 12.2831 11.5542 12.3565 11.4968 12.4218L11.4992 12.4243L11.4412 12.4823C10.6176 13.3068 9.43981 13.6732 8.33333 13.6732C7.22685 13.6732 6.0491 13.3068 5.22546 12.4823C5.08111 12.3376 4.99172 12.1481 4.97164 11.9464L4.96761 11.8594C4.96761 11.6257 5.06037 11.4012 5.22546 11.2357C5.39072 11.0708 5.61539 10.9764 5.84913 10.9763C6.08238 10.9763 6.30675 11.0692 6.47199 11.2333L6.55499 11.3115L6.72339 11.4436C7.14041 11.7361 7.71355 11.9078 8.33333 11.9078C9.08896 11.9078 9.77456 11.6526 10.1931 11.2349C10.2723 11.1517 10.3671 11.0838 10.4727 11.0367L10.5557 11.0053C10.6398 10.9776 10.728 10.9626 10.8167 10.961ZM8.33333 5.58805C8.56729 5.58805 8.79218 5.68114 8.95781 5.84671C9.12302 6.01211 9.21639 6.23645 9.21646 6.47038V9.58229C9.21646 9.81647 9.12323 10.0413 8.95781 10.2068C8.79233 10.3722 8.56755 10.4654 8.33333 10.4654H7.5058C7.27162 10.4654 7.04679 10.3722 6.88132 10.2068C6.71585 10.0413 6.62268 9.8165 6.62267 9.58229C6.62271 9.34813 6.71587 9.12327 6.88132 8.95781C7.03365 8.80559 7.23633 8.7151 7.4502 8.70157V6.47038C7.45028 6.23645 7.54365 6.01211 7.70886 5.84671C7.87448 5.68114 8.09938 5.58806 8.33333 5.58805ZM5.02159 4.13846C5.25579 4.13846 5.4806 4.23249 5.64607 4.39792C5.81139 4.56332 5.90464 4.78757 5.90472 5.02159V6.2641C5.90462 6.49812 5.81139 6.72239 5.64607 6.88777C5.4806 7.0532 5.25579 7.14643 5.02159 7.14643C4.78752 7.14634 4.56333 7.05316 4.39792 6.88777C4.23253 6.72238 4.13857 6.49817 4.13846 6.2641V5.02159C4.13855 4.78749 4.23251 4.56334 4.39792 4.39792C4.56334 4.23251 4.78749 4.13855 5.02159 4.13846ZM11.6451 4.13846C11.8792 4.13855 12.1033 4.23251 12.2687 4.39792C12.4342 4.56334 12.5281 4.78749 12.5282 5.02159V6.2641C12.5281 6.49817 12.4341 6.72238 12.2687 6.88777C12.1033 7.05316 11.8792 7.14634 11.6451 7.14643C11.4109 7.14643 11.1861 7.0532 11.0206 6.88777C10.8553 6.72239 10.762 6.49812 10.7619 6.2641V5.02159C10.762 4.78757 10.8553 4.56332 11.0206 4.39792C11.1861 4.23249 11.4109 4.13846 11.6451 4.13846ZM6.1803 1.82695e-08C6.41443 1.82695e-08 6.64003 0.0931025 6.80558 0.258654L6.8644 0.323116C6.99287 0.480148 7.06335 0.677795 7.06343 0.882324C7.06341 1.08699 6.99299 1.2852 6.8644 1.44234L6.80558 1.5068C6.64003 1.67235 6.41443 1.76545 6.1803 1.76545C5.2389 1.76545 4.58525 1.76543 4.07803 1.80736C3.5815 1.84743 3.29959 1.92251 3.09015 2.02894C2.63362 2.26168 2.26258 2.63418 2.02975 3.09096C1.92342 3.30034 1.84825 3.58114 1.80736 4.07803C1.76623 4.58639 1.76546 5.23953 1.76545 6.1803C1.76545 6.38522 1.69446 6.58386 1.56562 6.74112L1.5068 6.80558C1.34121 6.97103 1.1162 7.06341 0.882324 7.06343C0.677795 7.06335 0.480148 6.99287 0.323116 6.8644L0.258654 6.80558C0.0931025 6.64003 0 6.41443 0 6.1803V6.15371C-1.80422e-08 5.25393 0.000115765 4.5246 0.0483465 3.9346V3.93299L0.0692967 3.7106C0.126002 3.19417 0.234313 2.72734 0.456069 2.29082L0.457681 2.2876L0.616418 2.00477L0.61803 2.00155C1.02123 1.34431 1.59911 0.808655 2.29001 0.456875L2.29324 0.456069L2.47695 0.369851L2.47937 0.369045C2.92461 0.17765 3.40328 0.0915107 3.9346 0.0483466H3.93621L4.40195 0.0201444H4.40356C4.89907 -0.000123216 5.47833 4.63988e-09 6.15371 1.82695e-08H6.1803ZM10.513 1.82695e-08C11.4127 3.47189e-10 12.1421 0.000115946 12.7321 0.0483466H12.7337L12.9561 0.0692967C13.408 0.118917 13.8223 0.207909 14.2115 0.377909L14.3775 0.456069L14.3807 0.457681L14.6635 0.617224L14.6659 0.618836C15.2407 0.971787 15.7226 1.45805 16.0696 2.037L16.2098 2.29001L16.2106 2.29324L16.2968 2.47695L16.2976 2.47937C16.4412 2.81328 16.5258 3.16583 16.5772 3.54541L16.6183 3.9346V3.93621L16.6465 4.40195V4.40356C16.6668 4.89907 16.6667 5.47833 16.6667 6.15371V6.1803C16.6667 6.38523 16.5957 6.58386 16.4668 6.74112L16.408 6.80558C16.2425 6.97089 16.0181 7.06333 15.7843 7.06343C15.5797 7.06341 15.3815 6.99299 15.2243 6.8644L15.1599 6.80558C14.9943 6.64003 14.9012 6.41443 14.9012 6.1803C14.9012 5.2389 14.9012 4.58525 14.8593 4.07803C14.8195 3.58444 14.7441 3.30339 14.6385 3.09418L14.541 2.92094C14.3079 2.5423 13.9741 2.23283 13.5757 2.02975C13.3663 1.92347 13.086 1.84822 12.5894 1.80736C12.0811 1.76623 11.4272 1.76546 10.4864 1.76545C10.2522 1.76545 10.0273 1.67212 9.86189 1.5068C9.69645 1.34133 9.60326 1.11649 9.60324 0.882324C9.60333 0.648278 9.69655 0.424042 9.86189 0.258654C10.0273 0.093283 10.2522 1.82695e-08 10.4864 1.82695e-08H10.513Z" fill="#000000"/>
</g>
</svg>
