<svg width="16" height="16" viewBox="0 0 16 16" fill="none" xmlns="http://www.w3.org/2000/svg">
<path d="M7.34926 12.3967C7.11415 12.3967 6.91711 12.3174 6.75815 12.1589C6.59909 12.0002 6.51956 11.8037 6.51956 11.5692C6.51956 11.3348 6.60109 11.1361 6.76416 10.973C6.92724 10.81 7.12522 10.7286 7.35812 10.7286H8.65078C8.88589 10.7286 9.08293 10.81 9.24189 10.973C9.40095 11.1361 9.48049 11.3348 9.48049 11.5692C9.48049 11.8037 9.39895 12.0002 9.23588 12.1589C9.07281 12.3174 8.87482 12.3967 8.64192 12.3967H7.34926ZM4.7641 8.82991C4.52899 8.82991 4.33195 8.75059 4.17299 8.59195C4.01393 8.43331 3.9344 8.2368 3.9344 8.00242C3.9344 7.76794 4.01393 7.56921 4.17299 7.40625C4.33195 7.24318 4.52899 7.16164 4.7641 7.16164H11.2271C11.4621 7.16164 11.6591 7.24318 11.8182 7.40625C11.9771 7.56921 12.0566 7.76794 12.0566 8.00242C12.0566 8.2368 11.9771 8.43331 11.8182 8.59195C11.6591 8.75059 11.4621 8.82991 11.2271 8.82991H4.7641ZM2.82971 5.263C2.59459 5.263 2.39755 5.18368 2.2386 5.02504C2.07953 4.8665 2 4.66999 2 4.43551C2 4.20113 2.08154 4.00241 2.24461 3.83934C2.40768 3.67626 2.60567 3.59473 2.83857 3.59473H13.1703C13.4055 3.59473 13.6025 3.67626 13.7614 3.83934C13.9205 4.00241 14 4.20113 14 4.43551C14 4.66999 13.9185 4.8665 13.7554 5.02504C13.5924 5.18368 13.3944 5.263 13.1615 5.263H2.82971Z" fill="#2E3232"/>
</svg>
