<svg width="16" height="16" viewBox="0 0 16 16" fill="none" xmlns="http://www.w3.org/2000/svg">
<g transform="translate(1.3333,1.3333) scale(0.66667)">
<path fill-rule="evenodd" clip-rule="evenodd" d="M11.7257 16.2086C11.0329 17.6371 10.3643 17.8571 10 17.8571C9.63571 17.8571 8.96714 17.6371 8.27429 16.2086C7.74286 15.1114 7.35 13.5543 7.20429 11.6557C9.06403 11.8298 10.936 11.8298 12.7957 11.6557C12.65 13.5543 12.2571 15.1114 11.7243 16.2086M12.85 9.49571C11.94 9.59143 10.9857 9.64286 10 9.64286C9.01429 9.64286 8.06 9.59143 7.14857 9.49571C7.20143 7.07286 7.63857 5.10286 8.27429 3.79143C8.96714 2.36286 9.63571 2.14286 10 2.14286C10.3643 2.14286 11.0329 2.36286 11.7257 3.79143C12.3614 5.10286 12.7971 7.07286 12.8514 9.49571M14.9629 11.3614C14.8414 13.5271 14.4271 15.43 13.7686 16.8957C14.908 16.2731 15.8753 15.3777 16.584 14.2898C17.2928 13.2019 17.7209 11.9553 17.83 10.6614C16.9429 10.9457 15.98 11.1814 14.9629 11.3614ZM17.7029 8.44286C16.8857 8.73429 15.9743 8.98429 14.9871 9.17714C14.9071 6.79 14.4814 4.69143 13.7686 3.10429C14.7739 3.65353 15.6469 4.41596 16.3265 5.33815C17.0062 6.26035 17.4759 7.32 17.7029 8.44286ZM5.01286 9.17714C5.09286 6.79 5.51857 4.69143 6.23143 3.10429C5.22612 3.65353 4.35307 4.41596 3.67345 5.33815C2.99384 6.26035 2.5241 7.32 2.29714 8.44286C3.11429 8.73429 4.02571 8.98429 5.01286 9.17714ZM2.17143 10.6614C2.28057 11.9553 2.70866 13.2019 3.41741 14.2898C4.12616 15.3777 5.09347 16.2731 6.23286 16.8957C5.57571 15.43 5.16143 13.5271 5.03857 11.3614C4.06835 11.1921 3.11051 10.9583 2.17143 10.6614ZM20 10C20 7.34784 18.9464 4.8043 17.0711 2.92893C15.1957 1.05357 12.6522 0 10 0C7.34784 0 4.8043 1.05357 2.92893 2.92893C1.05357 4.8043 0 7.34784 0 10C0 12.6522 1.05357 15.1957 2.92893 17.0711C4.8043 18.9464 7.34784 20 10 20C12.6522 20 15.1957 18.9464 17.0711 17.0711C18.9464 15.1957 20 12.6522 20 10Z" fill="#F7F7F7"/>
</g>
</svg>
