<svg width="18" height="17" viewBox="0 0 18.3335 16.5002" fill="none" xmlns="http://www.w3.org/2000/svg">
<path d="M5.5 1.83352C6.00626 1.83352 6.41667 1.42312 6.41667 0.916855C6.41667 0.410594 6.00626 0.000187874 5.5 0.000187874H2.97917C1.84008 0.000187874 0.916667 0.923601 0.916667 2.06269V4.58352C0.916667 5.08978 1.32707 5.50019 1.83333 5.50019C2.33959 5.50019 2.75 5.08978 2.75 4.58352V1.83352H5.5ZM16.5 5.50019C17.0063 5.50019 17.4167 5.08978 17.4167 4.58352V2.06269C17.4167 0.923601 16.4933 0.000187874 15.3542 0.000187874H12.8333C12.3271 0.000187874 11.9167 0.410594 11.9167 0.916855C11.9167 1.42312 12.3271 1.83352 12.8333 1.83352H15.5833V4.58352C15.5833 5.08978 15.9937 5.50019 16.5 5.50019ZM15.5833 14.6669H12.8333C12.3271 14.6669 11.9167 15.0773 11.9167 15.5835C11.9167 16.0898 12.3271 16.5002 12.8333 16.5002H15.3542C16.4933 16.5002 17.4167 15.5768 17.4167 14.4377V11.9169C17.4167 11.4106 17.0063 11.0002 16.5 11.0002C15.9937 11.0002 15.5833 11.4106 15.5833 11.9169V14.6669ZM2.75 11.9169C2.75 11.4106 2.33959 11.0002 1.83333 11.0002C1.32707 11.0002 0.916667 11.4106 0.916667 11.9169V14.4377C0.916667 15.5768 1.84008 16.5002 2.97917 16.5002H5.5C6.00626 16.5002 6.41667 16.0898 6.41667 15.5835C6.41667 15.0773 6.00626 14.6669 5.5 14.6669H2.75V11.9169ZM0 8.25019C0 7.74393 0.410406 7.33352 0.916667 7.33352H17.4167C17.9229 7.33352 18.3333 7.74393 18.3333 8.25019C18.3333 8.75645 17.9229 9.16686 17.4167 9.16686H0.916667C0.410406 9.16686 0 8.75645 0 8.25019Z" fill="#E1E1E1"/>
</svg>
