<svg width="24" height="24" viewBox="0 0 24 24" fill="none" xmlns="http://www.w3.org/2000/svg">
<path d="M3.84961 15.2002V8.79981C3.84961 7.97898 3.84898 7.29416 3.89453 6.73633C3.94121 6.16497 4.04289 5.6262 4.30273 5.11621C4.70061 4.33534 5.33534 3.70061 6.11621 3.30273C6.6262 3.04289 7.16497 2.94121 7.73633 2.89453C8.29416 2.84898 8.97898 2.84961 9.79981 2.84961H12C12.6351 2.84961 13.1504 3.36487 13.1504 4C13.1504 4.63513 12.6351 5.15039 12 5.15039H9.79981C8.94086 5.15039 8.36538 5.15134 7.92285 5.1875C7.49408 5.22256 7.29184 5.28448 7.16016 5.35156C6.81206 5.52893 6.52893 5.81206 6.35156 6.16016C6.28448 6.29184 6.22256 6.49408 6.1875 6.92285C6.15134 7.36538 6.15039 7.94086 6.15039 8.79981V15.2002C6.15039 16.0591 6.15134 16.6346 6.1875 17.0771C6.22256 17.5059 6.28448 17.7082 6.35156 17.8398C6.52893 18.1879 6.81206 18.4711 7.16016 18.6484C7.29184 18.7155 7.49408 18.7774 7.92285 18.8125C8.36538 18.8487 8.94086 18.8496 9.79981 18.8496H12C12.6351 18.8496 13.1504 19.3649 13.1504 20C13.1504 20.6351 12.6351 21.1504 12 21.1504H9.79981C8.97898 21.1504 8.29416 21.151 7.73633 21.1055C7.16497 21.0588 6.6262 20.9571 6.11621 20.6973C5.33534 20.2994 4.70061 19.6647 4.30273 18.8838C4.04289 18.3738 3.94121 17.835 3.89453 17.2637C3.84898 16.7058 3.84961 16.021 3.84961 15.2002ZM15.6865 7.18652C16.1356 6.73742 16.8644 6.73742 17.3135 7.18652L21.3135 11.1865C21.7626 11.6356 21.7626 12.3644 21.3135 12.8135L17.3135 16.8135C16.8644 17.2626 16.1356 17.2626 15.6865 16.8135C15.2374 16.3644 15.2374 15.6356 15.6865 15.1865L17.7227 13.1504H10.5C9.86487 13.1504 9.34961 12.6351 9.34961 12C9.34961 11.3649 9.86487 10.8496 10.5 10.8496H17.7227L15.6865 8.81348C15.2374 8.36437 15.2374 7.63563 15.6865 7.18652Z" fill="#F7F7F7"/>
</svg>
