<svg width="24" height="24" viewBox="0 0 24 24" fill="none" xmlns="http://www.w3.org/2000/svg">
<path d="M3.125 13.125C2.80625 13.125 2.53906 13.0172 2.32344 12.8016C2.10781 12.5859 2 12.3188 2 12C2 11.6812 2.10781 11.4141 2.32344 11.1984C2.53906 10.9828 2.80625 10.875 3.125 10.875H10.55L16.175 5.25H14.375C14.0562 5.25 13.7891 5.14219 13.5734 4.92656C13.3578 4.71094 13.25 4.44375 13.25 4.125C13.25 3.80625 13.3578 3.53906 13.5734 3.32344C13.7891 3.10781 14.0562 3 14.375 3H18.875C19.1938 3 19.4609 3.10781 19.6766 3.32344C19.8922 3.53906 20 3.80625 20 4.125V8.625C20 8.94375 19.8922 9.21094 19.6766 9.42656C19.4609 9.64219 19.1938 9.75 18.875 9.75C18.5562 9.75 18.2891 9.64219 18.0734 9.42656C17.8578 9.21094 17.75 8.94375 17.75 8.625V6.825L12.0969 12.4781C11.8906 12.6844 11.6516 12.8438 11.3797 12.9563C11.1078 13.0688 10.8219 13.125 10.5219 13.125H3.125ZM14.375 21C14.0562 21 13.7891 20.8922 13.5734 20.6766C13.3578 20.4609 13.25 20.1938 13.25 19.875C13.25 19.5562 13.3578 19.2891 13.5734 19.0734C13.7891 18.8578 14.0562 18.75 14.375 18.75H16.175L13.3906 15.9938C13.1656 15.7688 13.0531 15.5016 13.0531 15.1922C13.0531 14.8828 13.1656 14.6156 13.3906 14.3906C13.6156 14.1656 13.8875 14.0531 14.2063 14.0531C14.525 14.0531 14.7969 14.1656 15.0219 14.3906L17.75 17.175V15.375C17.75 15.0562 17.8578 14.7891 18.0734 14.5734C18.2891 14.3578 18.5562 14.25 18.875 14.25C19.1938 14.25 19.4609 14.3578 19.6766 14.5734C19.8922 14.7891 20 15.0562 20 15.375V19.875C20 20.1938 19.8922 20.4609 19.6766 20.6766C19.4609 20.8922 19.1938 21 18.875 21H14.375Z" fill="#00A460"/>
</svg>
