<svg width="24" height="24" viewBox="0 0 24 24" fill="none" xmlns="http://www.w3.org/2000/svg">
<path d="M13.3034 12.1895C14.3273 11.4316 15.1267 10.6 15.7017 9.69474C16.2767 8.78947 16.5642 7.88772 16.5642 6.98947C16.5642 6.54035 16.4906 6.21053 16.3434 6C16.1961 5.78947 15.9962 5.68421 15.7438 5.68421C15.0846 5.68421 14.5026 6.24211 13.9977 7.35789C13.4928 8.47368 13.2403 9.73333 13.2403 11.1368C13.2403 11.3333 13.2438 11.5193 13.2509 11.6947C13.2579 11.8702 13.2754 12.0351 13.3034 12.1895ZM4.90951 16.0421C4.75523 16.1965 4.55888 16.2737 4.32046 16.2737C4.08204 16.2737 3.88569 16.1965 3.73141 16.0421C3.57714 15.8877 3.5 15.6912 3.5 15.4526C3.5 15.214 3.57714 15.0175 3.73141 14.8632L4.48876 14.1053L3.73141 13.3474C3.57714 13.193 3.5 12.9965 3.5 12.7579C3.5 12.5193 3.57714 12.3228 3.73141 12.1684C3.88569 12.014 4.08204 11.9368 4.32046 11.9368C4.55888 11.9368 4.75523 12.014 4.90951 12.1684L5.66686 12.9263L6.4242 12.1684C6.57848 12.014 6.77483 11.9368 7.01325 11.9368C7.25168 11.9368 7.44803 12.014 7.6023 12.1684C7.75657 12.3228 7.83371 12.5193 7.83371 12.7579C7.83371 12.9965 7.75657 13.193 7.6023 13.3474L6.84495 14.1053L7.6023 14.8632C7.75657 15.0175 7.83371 15.214 7.83371 15.4526C7.83371 15.6912 7.75657 15.8877 7.6023 16.0421C7.44803 16.1965 7.25168 16.2737 7.01325 16.2737C6.77483 16.2737 6.57848 16.1965 6.4242 16.0421L5.66686 15.2842L4.90951 16.0421ZM14.4605 15.7895C14.0398 15.7895 13.6541 15.7088 13.3034 15.5474C12.9528 15.386 12.6513 15.1228 12.3988 14.7579C12.1744 14.8702 11.943 14.9825 11.7046 15.0947L10.9893 15.4316C10.7649 15.5298 10.544 15.5333 10.3266 15.4421C10.1093 15.3509 9.95849 15.193 9.87434 14.9684C9.79019 14.7439 9.80071 14.5263 9.9059 14.3158C10.0111 14.1053 10.1759 13.9509 10.4003 13.8526C10.6387 13.7404 10.8701 13.6316 11.0945 13.5263C11.3189 13.4211 11.5363 13.3123 11.7467 13.2C11.6765 12.8912 11.624 12.5544 11.5889 12.1895C11.5538 11.8246 11.5363 11.4316 11.5363 11.0105C11.5363 8.98947 11.936 7.31579 12.7354 5.98947C13.5349 4.66316 14.5376 4 15.7438 4C16.4731 4 17.0691 4.27018 17.532 4.81053C17.9948 5.35088 18.2262 6.10526 18.2262 7.07368C18.2262 8.2807 17.844 9.47368 17.0797 10.6526C16.3153 11.8316 15.2529 12.8912 13.8925 13.8316C13.9907 13.9298 14.0923 14.0035 14.1975 14.0526C14.3027 14.1018 14.4114 14.1263 14.5236 14.1263C14.8181 14.1263 15.1618 13.9649 15.5545 13.6421C15.9471 13.3193 16.3258 12.8842 16.6905 12.3368C16.8307 12.1404 17.0095 12.0035 17.2269 11.9263C17.4443 11.8491 17.6582 11.8596 17.8686 11.9579C18.0789 12.0702 18.2332 12.2351 18.3314 12.4526C18.4296 12.6702 18.4576 12.8982 18.4155 13.1368C18.3875 13.3053 18.3735 13.4667 18.3735 13.6211C18.3735 13.7754 18.3945 13.9228 18.4366 14.0632C18.5067 14.0351 18.5873 13.9895 18.6785 13.9263C18.7697 13.8632 18.8643 13.7825 18.9625 13.6842C19.1308 13.5298 19.3307 13.4421 19.5621 13.4211C19.7935 13.4 20.0004 13.4596 20.1827 13.6C20.379 13.7544 20.4842 13.9439 20.4982 14.1684C20.5123 14.393 20.4421 14.5825 20.2879 14.7368C19.9653 15.0596 19.6252 15.3158 19.2676 15.5053C18.9099 15.6947 18.5698 15.7895 18.2472 15.7895C17.9527 15.7895 17.6897 15.7018 17.4583 15.5263C17.2269 15.3509 17.0341 15.0807 16.8798 14.7158C16.4871 15.0667 16.0874 15.3333 15.6807 15.5158C15.274 15.6982 14.8672 15.7895 14.4605 15.7895ZM4.22579 19.7579C4.0645 19.5965 3.98386 19.3965 3.98386 19.1579C3.98386 18.9193 4.0645 18.7193 4.22579 18.5579C4.38708 18.3965 4.58693 18.3158 4.82536 18.3158C5.06378 18.3158 5.26364 18.3965 5.42493 18.5579C5.58621 18.7193 5.66686 18.9193 5.66686 19.1579C5.66686 19.3965 5.58621 19.5965 5.42493 19.7579C5.26364 19.9193 5.06378 20 4.82536 20C4.58693 20 4.38708 19.9193 4.22579 19.7579ZM7.59178 19.7579C7.43049 19.5965 7.34985 19.3965 7.34985 19.1579C7.34985 18.9193 7.43049 18.7193 7.59178 18.5579C7.75307 18.3965 7.95292 18.3158 8.19135 18.3158C8.42977 18.3158 8.62963 18.3965 8.79091 18.5579C8.9522 18.7193 9.03285 18.9193 9.03285 19.1579C9.03285 19.3965 8.9522 19.5965 8.79091 19.7579C8.62963 19.9193 8.42977 20 8.19135 20C7.95292 20 7.75307 19.9193 7.59178 19.7579ZM10.9578 19.7579C10.7965 19.5965 10.7158 19.3965 10.7158 19.1579C10.7158 18.9193 10.7965 18.7193 10.9578 18.5579C11.1191 18.3965 11.3189 18.3158 11.5573 18.3158C11.7958 18.3158 11.9956 18.3965 12.1569 18.5579C12.3182 18.7193 12.3988 18.9193 12.3988 19.1579C12.3988 19.3965 12.3182 19.5965 12.1569 19.7579C11.9956 19.9193 11.7958 20 11.5573 20C11.3189 20 11.1191 19.9193 10.9578 19.7579ZM14.3238 19.7579C14.1625 19.5965 14.0818 19.3965 14.0818 19.1579C14.0818 18.9193 14.1625 18.7193 14.3238 18.5579C14.485 18.3965 14.6849 18.3158 14.9233 18.3158C15.1618 18.3158 15.3616 18.3965 15.5229 18.5579C15.6842 18.7193 15.7648 18.9193 15.7648 19.1579C15.7648 19.3965 15.6842 19.5965 15.5229 19.7579C15.3616 19.9193 15.1618 20 14.9233 20C14.6849 20 14.485 19.9193 14.3238 19.7579ZM17.6898 19.7579C17.5285 19.5965 17.4478 19.3965 17.4478 19.1579C17.4478 18.9193 17.5285 18.7193 17.6898 18.5579C17.851 18.3965 18.0509 18.3158 18.2893 18.3158C18.5277 18.3158 18.7276 18.3965 18.8889 18.5579C19.0502 18.7193 19.1308 18.9193 19.1308 19.1579C19.1308 19.3965 19.0502 19.5965 18.8889 19.7579C18.7276 19.9193 18.5277 20 18.2893 20C18.0509 20 17.851 19.9193 17.6898 19.7579Z" fill="#00A460"/>
</svg>
