<svg width="20" height="20" viewBox="0 0 20 20" fill="none" xmlns="http://www.w3.org/2000/svg">
<path d="M11.6954 17.7546C11.647 17.6785 11.6297 17.5852 11.6436 17.4746L12.4316 11.8958H9.07192C8.72627 11.8958 8.47741 11.7437 8.32532 11.4395C8.17323 11.1354 8.19397 10.845 8.38754 10.5685L14.1322 2.70843C14.2014 2.62547 14.2809 2.57362 14.3707 2.55288C14.4606 2.53214 14.547 2.5356 14.63 2.56325C14.7129 2.5909 14.7786 2.64275 14.827 2.71879C14.8754 2.79484 14.8927 2.88816 14.8788 2.99877L14.0908 8.57756H17.4505C17.7961 8.57756 18.045 8.72964 18.1971 9.03381C18.3492 9.33798 18.3284 9.62833 18.1349 9.90485L12.3902 17.7649C12.321 17.8479 12.2415 17.8997 12.1517 17.9205C12.0618 17.9412 11.9754 17.9377 11.8924 17.9101C11.8095 17.8824 11.7438 17.8306 11.6954 17.7546ZM4.13605 15.214C3.901 15.214 3.70398 15.1345 3.54499 14.9755C3.38599 14.8165 3.30649 14.6195 3.30649 14.3845C3.30649 14.1494 3.38599 13.9524 3.54499 13.7934C3.70398 13.6344 3.901 13.5549 4.13605 13.5549H9.56966C9.84618 13.5549 10.0536 13.6413 10.1918 13.8141C10.3301 13.987 10.3992 14.1771 10.3992 14.3845C10.3992 14.5919 10.3301 14.782 10.1918 14.9548C10.0536 15.1276 9.84618 15.214 9.56966 15.214H4.13605ZM3.30649 11.0662C3.07145 11.0662 2.87443 10.9867 2.71543 10.8277C2.55643 10.6687 2.47693 10.4717 2.47693 10.2367C2.47693 10.0016 2.55643 9.80461 2.71543 9.64561C2.87443 9.48661 3.07145 9.40711 3.30649 9.40711H5.58777C5.86429 9.40711 6.07168 9.49353 6.20994 9.66635C6.3482 9.83918 6.41733 10.0293 6.41733 10.2367C6.41733 10.4441 6.3482 10.6342 6.20994 10.807C6.07168 10.9798 5.86429 11.0662 5.58777 11.0662H3.30649ZM4.96561 6.91844C4.73056 6.91844 4.53354 6.83894 4.37454 6.67994C4.21555 6.52094 4.13605 6.32392 4.13605 6.08888C4.13605 5.85384 4.21555 5.65682 4.37454 5.49782C4.53354 5.33882 4.73056 5.25932 4.96561 5.25932H8.59493C8.87145 5.25932 9.07884 5.34573 9.2171 5.51856C9.35536 5.69138 9.42449 5.88149 9.42449 6.08888C9.42449 6.29627 9.35536 6.48638 9.2171 6.6592C9.07884 6.83202 8.87145 6.91844 8.59493 6.91844H4.96561Z" fill="#141818"/>
</svg>
