<svg width="24" height="24" viewBox="0 0 24 24" fill="none" xmlns="http://www.w3.org/2000/svg">
<path d="M13.3313 12.1769V9.18075C13.3313 8.94495 13.2516 8.74729 13.0923 8.58778C12.933 8.42826 12.7355 8.3485 12.5 8.3485C12.2645 8.3485 12.067 8.42826 11.9077 8.58778C11.7484 8.74729 11.6687 8.94495 11.6687 9.18075V12.4889C11.6687 12.5999 11.6895 12.7074 11.7311 12.8114C11.7726 12.9155 11.835 13.0091 11.9181 13.0923L14.2457 15.4226C14.3981 15.5752 14.5921 15.6515 14.8276 15.6515C15.0632 15.6515 15.2571 15.5752 15.4095 15.4226C15.5619 15.27 15.6381 15.0759 15.6381 14.8401C15.6381 14.6042 15.5619 14.4101 15.4095 14.2575L13.3313 12.1769ZM9.58007 19.407C8.67257 19.0117 7.88284 18.4777 7.21088 17.8049C6.53892 17.1322 6.0055 16.3416 5.61064 15.433C5.21577 14.5245 5.01834 13.5501 5.01834 12.5098C5.01834 11.4694 5.21577 10.495 5.61064 9.58648C6.0055 8.67794 6.53892 7.8873 7.21088 7.21456C7.88284 6.54183 8.67257 6.0078 9.58007 5.61248C10.4876 5.21717 11.4609 5.01951 12.5 5.01951C13.5391 5.01951 14.5124 5.21717 15.4199 5.61248C16.3274 6.0078 17.1172 6.54183 17.7891 7.21456C18.4611 7.8873 18.9945 8.67794 19.3894 9.58648C19.7842 10.495 19.9817 11.4694 19.9817 12.5098C19.9817 13.5501 19.7842 14.5245 19.3894 15.433C18.9945 16.3416 18.4611 17.1322 17.7891 17.8049C17.1172 18.4777 16.3274 19.0117 15.4199 19.407C14.5124 19.8023 13.5391 20 12.5 20C11.4609 20 10.4876 19.8023 9.58007 19.407ZM4.22861 7.76593C4.0762 7.61335 4 7.41916 4 7.18335C4 6.94755 4.0762 6.75336 4.22861 6.60078L6.5978 4.22887C6.7502 4.07629 6.94417 4 7.17971 4C7.41524 4 7.60921 4.07629 7.76161 4.22887C7.91402 4.38145 7.99022 4.57564 7.99022 4.81144C7.99022 5.04725 7.91402 5.24144 7.76161 5.39402L5.39242 7.76593C5.24002 7.91851 5.04605 7.9948 4.81051 7.9948C4.57498 7.9948 4.38101 7.91851 4.22861 7.76593ZM20.7714 7.76593C20.619 7.91851 20.425 7.9948 20.1895 7.9948C19.954 7.9948 19.76 7.91851 19.6076 7.76593L17.2384 5.39402C17.086 5.24144 17.0098 5.04725 17.0098 4.81144C17.0098 4.57564 17.086 4.38145 17.2384 4.22887C17.3908 4.07629 17.5848 4 17.8203 4C18.0558 4 18.2498 4.07629 18.4022 4.22887L20.7714 6.60078C20.9238 6.75336 21 6.94755 21 7.18335C21 7.41916 20.9238 7.61335 20.7714 7.76593ZM12.5 18.3355C14.121 18.3355 15.4961 17.7703 16.6253 16.6398C17.7545 15.5093 18.3191 14.1326 18.3191 12.5098C18.3191 10.8869 17.7545 9.51019 16.6253 8.37971C15.4961 7.24924 14.121 6.68401 12.5 6.68401C10.879 6.68401 9.50387 7.24924 8.37469 8.37971C7.24552 9.51019 6.68093 10.8869 6.68093 12.5098C6.68093 14.1326 7.24552 15.5093 8.37469 16.6398C9.50387 17.7703 10.879 18.3355 12.5 18.3355Z" fill="#00A460"/>
</svg>
