<svg width="20" height="20" viewBox="0 0 20 20" fill="none" xmlns="http://www.w3.org/2000/svg">
<path d="M12.3164 16.5234C12.1304 17.5071 11.2275 18.3325 10.0041 18.3327C8.77276 18.3327 7.86983 17.5069 7.68378 16.5234H12.3164ZM9.99609 1.66602C10.2813 1.66604 10.5454 1.71467 10.7831 1.81037C10.2445 2.49606 9.91706 3.3623 9.91703 4.30647C9.91703 6.54416 11.7347 8.37877 13.9518 8.37877C14.3686 8.37874 14.7725 8.30149 15.1457 8.16986C15.192 8.57194 15.2245 8.98676 15.2443 9.4197V9.42598C15.2802 9.87706 15.3374 10.3734 15.4513 10.8238C15.5642 11.2703 15.739 11.6951 16.0278 11.9822L16.0287 11.9839C16.3888 12.3353 16.748 12.6806 17.0192 13.041C17.2899 13.4009 17.4562 13.7539 17.4562 14.116C17.4562 14.3983 17.351 14.6237 17.1684 14.7813C16.9831 14.9412 16.7019 15.044 16.3298 15.044H3.66945C3.29317 15.0439 3.01217 14.9408 2.82821 14.7813C2.64708 14.6242 2.54398 14.3991 2.54395 14.116C2.54395 13.7533 2.70784 13.3998 2.97656 13.0401C3.24558 12.68 3.60287 12.3349 3.9626 11.9839L3.96349 11.983C4.27825 11.6742 4.46079 11.2107 4.57821 10.7153C4.69654 10.2159 4.75454 9.65557 4.80206 9.1319L4.80295 9.12204C4.91325 6.19664 5.75239 4.23117 7.70333 3.51926L7.78861 3.48788L7.81526 3.40091C8.12172 2.40511 8.91844 1.66602 9.99609 1.66602ZM13.9598 1.72967C15.3502 1.72983 16.5128 2.88852 16.5128 4.30647C16.5128 5.71681 15.3499 6.8831 13.9598 6.88326C12.5544 6.88326 11.4067 5.7176 11.4067 4.30647C11.4068 2.88773 12.5541 1.72967 13.9598 1.72967Z" fill="#DDEAE4"/>
</svg>
