<svg width="24" height="24" viewBox="0 0 24 24" fill="none" xmlns="http://www.w3.org/2000/svg">
<g transform="translate(9.76 3.6) scale(1.5)">
<path d="M1.49335 8.23553C2.31818 8.23553 2.98668 8.89906 2.98668 9.71776C2.98668 10.4854 2.39897 11.117 1.64568 11.1928L1.49335 11.2C0.71993 11.2 0.083607 10.6167 0.00730593 9.86896L1.34722e-05 9.71776C1.35122e-05 8.89906 0.668512 8.23553 1.49335 8.23553ZM1.49335 4.11777C2.31818 4.11777 2.98668 4.7813 2.98668 5.6C2.98668 6.36767 2.39897 6.99926 1.64568 7.075L1.49335 7.08223C0.71993 7.08223 0.083607 6.49889 0.00730593 5.7512L1.34722e-05 5.6C1.35122e-05 4.7813 0.668512 4.11777 1.49335 4.11777ZM1.49335 0C2.31818 3.9682e-08 2.98668 0.66353 2.98668 1.48223C2.98668 2.2499 2.39897 2.8815 1.64568 2.95723L1.49335 2.96447C0.71993 2.96447 0.083607 2.38113 0.00730593 1.63343L1.34722e-05 1.48223C1.35122e-05 0.66353 0.668512 -3.57867e-08 1.49335 0Z" fill="#E1E1E1"/>
</g>
</svg>
