<svg width="24" height="24" viewBox="0 0 24 24" fill="none" xmlns="http://www.w3.org/2000/svg">
<path d="M12.0371 5.5C12.2706 5.50006 12.4857 5.56821 12.6768 5.7002L12.7568 5.76074C12.9867 5.94825 13.0947 6.21112 13.0947 6.52148V6.76074C13.456 6.82541 13.7894 6.96025 14.0918 7.16504C14.4373 7.39915 14.7327 7.698 14.9775 8.05859L14.9805 8.06348C15.1427 8.31705 15.1844 8.59308 15.0938 8.875C15.0042 9.15361 14.8116 9.36249 14.5381 9.50293L14.5391 9.50391C14.312 9.62343 14.0677 9.65233 13.8164 9.59277C13.5583 9.53152 13.3351 9.37354 13.1455 9.14258L13.1445 9.1416C13.011 8.97557 12.8527 8.85393 12.6709 8.77441C12.4893 8.69498 12.2625 8.6514 11.9854 8.65137C11.5794 8.65137 11.2871 8.74032 11.0859 8.89355C10.8914 9.04206 10.7939 9.23954 10.7939 9.50781C10.7941 9.78668 10.9139 10.0126 11.1816 10.1963C11.4002 10.3461 11.7727 10.5221 12.3076 10.7227L12.8975 10.9316L12.9004 10.9326C13.9793 11.3133 14.7408 11.7834 15.1328 12.3643C15.5102 12.9239 15.7002 13.5426 15.7002 14.2148C15.7001 15.1568 15.4228 15.8916 14.834 16.375C14.3189 16.7975 13.7228 17.0805 13.0518 17.2285V17.4785C13.0518 17.7813 12.9451 18.0393 12.7236 18.2295C12.5152 18.4084 12.2689 18.4999 11.9941 18.5C11.7145 18.5 11.4657 18.3992 11.2578 18.2061C11.0433 18.0067 10.9355 17.7509 10.9355 17.4541V17.1807C10.4614 17.0589 10.0316 16.851 9.65039 16.5537C9.22491 16.2219 8.88741 15.7899 8.63574 15.2646L8.63477 15.2637C8.50887 14.9942 8.49767 14.7134 8.60254 14.4355C8.70998 14.1518 8.91848 13.9509 9.20898 13.835L9.31055 13.7998C9.54585 13.7295 9.78207 13.7424 10.0098 13.8438C10.1981 13.9276 10.3597 14.0561 10.4951 14.2227L10.6221 14.4014L10.625 14.4062C10.8047 14.718 11.0218 14.9419 11.2734 15.0859C11.528 15.2315 11.8176 15.3066 12.1455 15.3066C12.6127 15.3066 12.9661 15.2079 13.2217 15.0303C13.4548 14.8682 13.5839 14.6103 13.584 14.2148C13.584 13.8949 13.4539 13.6373 13.1758 13.4287C12.8757 13.204 12.3342 12.9477 11.5322 12.665C10.5596 12.3241 9.83206 11.9202 9.37402 11.4434C8.90609 10.9561 8.67786 10.3249 8.67773 9.56934C8.67773 8.92831 8.88984 8.34141 9.30469 7.81445C9.69975 7.31272 10.2636 6.97173 10.9795 6.7793V6.52148C10.9795 6.21106 11.0875 5.94825 11.3174 5.76074L11.3984 5.7002C11.5894 5.5685 11.8038 5.50002 12.0371 5.5Z" fill="#F7F7F7"/>
<path fill-rule="evenodd" clip-rule="evenodd" d="M12 2C13.387 2 14.6885 2.26244 15.9043 2.78711C17.1202 3.31177 18.1778 4.02367 19.0771 4.92285C19.9763 5.8222 20.6882 6.87982 21.2129 8.0957C21.7376 9.31149 22 10.613 22 12C22 13.387 21.7376 14.6885 21.2129 15.9043C20.6882 17.1202 19.9763 18.1778 19.0771 19.0771C18.1778 19.9763 17.1202 20.6882 15.9043 21.2129C14.6885 21.7376 13.387 22 12 22C10.613 22 9.31149 21.7376 8.0957 21.2129C6.87982 20.6882 5.8222 19.9763 4.92285 19.0771C4.02367 18.1778 3.31177 17.1202 2.78711 15.9043C2.26244 14.6885 2 13.387 2 12C2 10.613 2.26244 9.31149 2.78711 8.0957C3.31177 6.87982 4.02367 5.8222 4.92285 4.92285C5.8222 4.02367 6.87982 3.31177 8.0957 2.78711C9.31149 2.26244 10.613 2 12 2ZM12 4.22949C9.82684 4.22949 7.98798 4.98093 6.48438 6.48438C4.98093 7.98798 4.22949 9.82684 4.22949 12C4.22949 14.1732 4.98093 16.012 6.48438 17.5156C7.98798 19.0191 9.82684 19.7705 12 19.7705C14.1732 19.7705 16.012 19.0191 17.5156 17.5156C19.0191 16.012 19.7705 14.1732 19.7705 12C19.7705 9.82684 19.0191 7.98798 17.5156 6.48438C16.012 4.98093 14.1732 4.22949 12 4.22949Z" fill="#F7F7F7"/>
</svg>
