<svg width="20" height="20" viewBox="0 0 20 20" fill="none" xmlns="http://www.w3.org/2000/svg">
<path d="M10.0371 3.5C10.2706 3.50006 10.4857 3.56821 10.6768 3.7002L10.7568 3.76074C10.9867 3.94825 11.0947 4.21112 11.0947 4.52148V4.76074C11.456 4.82541 11.7894 4.96025 12.0918 5.16504C12.4373 5.39915 12.7327 5.698 12.9775 6.05859L12.9805 6.06348C13.1427 6.31705 13.1844 6.59308 13.0938 6.875C13.0042 7.15361 12.8116 7.36249 12.5381 7.50293L12.5391 7.50391C12.312 7.62343 12.0677 7.65233 11.8164 7.59277C11.5583 7.53152 11.3351 7.37354 11.1455 7.14258L11.1445 7.1416C11.011 6.97557 10.8527 6.85393 10.6709 6.77441C10.4893 6.69498 10.2625 6.6514 9.98535 6.65137C9.57945 6.65137 9.28709 6.74032 9.08594 6.89355C8.89138 7.04206 8.79395 7.23954 8.79395 7.50781C8.7941 7.78668 8.91391 8.01263 9.18164 8.19629C9.40017 8.34608 9.77272 8.52214 10.3076 8.72266L10.8975 8.93164L10.9004 8.93262C11.9793 9.31334 12.7408 9.78335 13.1328 10.3643C13.5102 10.9239 13.7002 11.5426 13.7002 12.2148C13.7001 13.1568 13.4228 13.8916 12.834 14.375C12.3189 14.7975 11.7228 15.0805 11.0518 15.2285V15.4785C11.0518 15.7813 10.9451 16.0393 10.7236 16.2295C10.5152 16.4084 10.2689 16.4999 9.99414 16.5C9.71452 16.5 9.46569 16.3992 9.25781 16.2061C9.04329 16.0067 8.93555 15.7509 8.93555 15.4541V15.1807C8.46142 15.0589 8.03159 14.851 7.65039 14.5537C7.22491 14.2219 6.88741 13.7899 6.63574 13.2646L6.63477 13.2637C6.50887 12.9942 6.49767 12.7134 6.60254 12.4355C6.70998 12.1518 6.91848 11.9509 7.20898 11.835L7.31055 11.7998C7.54585 11.7295 7.78207 11.7424 8.00977 11.8438C8.19807 11.9276 8.35967 12.0561 8.49512 12.2227L8.62207 12.4014L8.625 12.4062C8.80471 12.718 9.02182 12.9419 9.27344 13.0859C9.52802 13.2315 9.81759 13.3066 10.1455 13.3066C10.6127 13.3066 10.9661 13.2079 11.2217 13.0303C11.4548 12.8682 11.5839 12.6103 11.584 12.2148C11.584 11.8949 11.4539 11.6373 11.1758 11.4287C10.8757 11.204 10.3342 10.9477 9.53223 10.665C8.55963 10.3241 7.83206 9.92016 7.37402 9.44336C6.90609 8.95607 6.67786 8.32489 6.67773 7.56934C6.67773 6.92831 6.88984 6.34141 7.30469 5.81445C7.69975 5.31272 8.26357 4.97173 8.97949 4.7793V4.52148C8.97949 4.21106 9.08747 3.94825 9.31738 3.76074L9.39844 3.7002C9.58941 3.5685 9.80379 3.50002 10.0371 3.5Z" fill="#F7F7F7"/>
<path fill-rule="evenodd" clip-rule="evenodd" d="M10 0C11.387 0 12.6885 0.26244 13.9043 0.787109C15.1202 1.31177 16.1778 2.02367 17.0771 2.92285C17.9763 3.8222 18.6882 4.87982 19.2129 6.0957C19.7376 7.31149 20 8.61302 20 10C20 11.387 19.7376 12.6885 19.2129 13.9043C18.6882 15.1202 17.9763 16.1778 17.0771 17.0771C16.1778 17.9763 15.1202 18.6882 13.9043 19.2129C12.6885 19.7376 11.387 20 10 20C8.61302 20 7.31149 19.7376 6.0957 19.2129C4.87982 18.6882 3.8222 17.9763 2.92285 17.0771C2.02367 16.1778 1.31177 15.1202 0.787109 13.9043C0.26244 12.6885 0 11.387 0 10C0 8.61302 0.26244 7.31149 0.787109 6.0957C1.31177 4.87982 2.02367 3.8222 2.92285 2.92285C3.8222 2.02367 4.87982 1.31177 6.0957 0.787109C7.31149 0.26244 8.61302 0 10 0ZM10 2.22949C7.82684 2.22949 5.98798 2.98093 4.48438 4.48438C2.98093 5.98798 2.22949 7.82684 2.22949 10C2.22949 12.1732 2.98093 14.012 4.48438 15.5156C5.98798 17.0191 7.82684 17.7705 10 17.7705C12.1732 17.7705 14.012 17.0191 15.5156 15.5156C17.0191 14.012 17.7705 12.1732 17.7705 10C17.7705 7.82684 17.0191 5.98798 15.5156 4.48438C14.012 2.98093 12.1732 2.22949 10 2.22949Z" fill="#F7F7F7"/>
</svg>
