<svg width="24" height="24" viewBox="0 0 24 24" fill="none" xmlns="http://www.w3.org/2000/svg">
<g transform="translate(3 2) scale(1.2)">
<path d="M10.8984 6.31796C11.4666 6.31805 12.0119 6.54346 12.4137 6.94497L14.3726 8.90243C14.7743 9.30394 14.9999 9.84887 15 10.4167V15.0605C15 15.4865 14.831 15.8954 14.5296 16.1966C14.2282 16.4978 13.819 16.6667 13.3927 16.6667H8.28532C7.85924 16.6666 7.45058 16.4977 7.14925 16.1966C6.84785 15.8954 6.67806 15.4865 6.67806 15.0605V7.92411C6.67806 7.49816 6.84785 7.0892 7.14925 6.78802C7.45057 6.48703 7.85927 6.31803 8.28532 6.31796H10.8984Z" fill="#E1E1E1"/>
<path d="M6.14258 1.45164e-05C7.13877 -0.000258224 7.32861 0.605282 7.75553 1.35342H8.15186C9.25077 1.35355 10.1422 2.24446 10.1424 3.3426V4.16697C10.1424 4.39693 9.95587 4.58335 9.72575 4.58335H8.71989C8.48977 4.58335 8.30322 4.39693 8.30322 4.16697V3.3426C8.30303 3.25918 8.23535 3.19146 8.15186 3.19134H1.99056C1.90712 3.19152 1.83938 3.25922 1.83919 3.3426V11.3465C1.83922 11.3867 1.85551 11.4254 1.88395 11.4538C1.91231 11.482 1.95057 11.4977 1.99056 11.4977H4.58333C4.81345 11.4977 5 11.6842 5 11.9141V12.9193C5 13.1492 4.81345 13.3357 4.58333 13.3357H1.99056C0.891716 13.3355 6.26851e-05 12.4459 0 11.3465V3.3426C0.000188627 2.24449 0.891694 1.35361 1.99056 1.35342H2.38688C2.81379 0.605255 3.00366 -0.00022154 3.99984 1.45164e-05H6.14258Z" fill="#E1E1E1"/>
</g>
</svg>
