<svg width="20" height="20" viewBox="0 0 20 20" fill="none" xmlns="http://www.w3.org/2000/svg">
<g id="svg" transform="translate(5.833 4.16665)">
<path id="icon" d="M3.09801 0.906057C2.08819 0.283226 1.58328 -0.0281896 1.16605 0.00200416C0.802431 0.0283189 0.468406 0.206036 0.250279 0.48924C0 0.814189 0 1.39424 0 2.55434V9.11233C0 10.2724 0 10.8525 0.250279 11.1774C0.468406 11.4606 0.802431 11.6383 1.16605 11.6647C1.58328 11.6949 2.08819 11.3834 3.098 10.7606L8.41436 7.48162C9.30261 6.93377 9.74674 6.65984 9.89975 6.31067C10.0334 6.00563 10.0334 5.66103 9.89975 5.35599C9.74674 5.00682 9.30262 4.7329 8.41437 4.18505L3.09801 0.906057Z" fill="#1B1F1F"/>
</g>
</svg>
