<svg width="24" height="24" viewBox="0 0 24 24" fill="none" xmlns="http://www.w3.org/2000/svg">
<path d="M10.7546 13.2454V18.7546C10.7546 19.1074 10.8744 19.4032 11.1139 19.6419C11.3536 19.8806 11.649 20 12 20C12.351 20 12.6464 19.8806 12.8861 19.6419C13.1257 19.4032 13.2454 19.1074 13.2454 18.7546V13.2454H18.7546C19.1074 13.2454 19.4032 13.1256 19.6419 12.8861C19.8806 12.6464 20 12.351 20 12C20 11.649 19.8806 11.3536 19.6419 11.1139C19.4032 10.8743 19.1074 10.7546 18.7546 10.7546H13.2454V5.24541C13.2454 4.89258 13.1257 4.5968 12.8861 4.35808C12.6464 4.11936 12.351 4 12 4C11.649 4 11.3536 4.11936 11.1139 4.35808C10.8744 4.5968 10.7546 4.89258 10.7546 5.24541V10.7546H5.24541C4.89258 10.7546 4.5968 10.8743 4.35808 11.1139C4.11936 11.3536 4 11.649 4 12C4 12.351 4.11936 12.6464 4.35808 12.8861C4.5968 13.1256 4.89258 13.2454 5.24541 13.2454H10.7546Z" fill="#F7F7F7"/>
</svg>
