<svg width="24" height="24" viewBox="0 0 24 24" fill="none" xmlns="http://www.w3.org/2000/svg">
<path d="M16.8535 11.0518C16.8535 10.29 16.7036 9.53582 16.4121 8.83203C16.1205 8.12811 15.6931 7.48798 15.1543 6.94922C14.6156 6.41057 13.9763 5.98295 13.2725 5.69141C12.5685 5.39983 11.8137 5.25 11.0518 5.25C10.2901 5.25003 9.53578 5.39997 8.83203 5.69141C8.12811 5.98298 7.48798 6.41046 6.94922 6.94922C5.86119 8.03725 5.25005 9.51305 5.25 11.0518C5.25 12.5904 5.86126 14.0662 6.94922 15.1543C8.03725 16.2423 9.51305 16.8535 11.0518 16.8535C12.5905 16.8535 14.0662 16.2424 15.1543 15.1543C15.693 14.6156 16.1205 13.9763 16.4121 13.2725C16.7037 12.5685 16.8535 11.8137 16.8535 11.0518ZM19.3535 11.0518C19.3535 12.1419 19.1388 13.2214 18.7217 14.2285C18.465 14.8482 18.134 15.4328 17.7383 15.9707L21.8838 20.1162C22.3719 20.6044 22.3719 21.3956 21.8838 21.8838C21.3956 22.3719 20.6044 22.3719 20.1162 21.8838L15.9707 17.7383C14.5537 18.7807 12.8325 19.3535 11.0518 19.3535C8.85001 19.3535 6.73851 18.4787 5.18164 16.9219C3.62484 15.365 2.75 13.2535 2.75 11.0518C2.75005 8.85001 3.62477 6.73851 5.18164 5.18164C5.95255 4.41073 6.86776 3.79905 7.875 3.38184C8.88215 2.96467 9.96163 2.75003 11.0518 2.75C12.1418 2.75 13.2214 2.96474 14.2285 3.38184C15.2357 3.79901 16.151 4.41083 16.9219 5.18164C17.6928 5.95254 18.3045 6.86778 18.7217 7.875C19.1389 8.88218 19.3535 9.9616 19.3535 11.0518Z" fill="#F7F7F7"/>
</svg>
