<svg width="24" height="24" viewBox="0 0 24 24" fill="none" xmlns="http://www.w3.org/2000/svg">
<g transform="translate(3 3.19922) scale(1.2)">
<path d="M10.123 14.5903H4.877C4.20422 14.5903 3.64292 14.5908 3.1857 14.5535C2.7174 14.5152 2.2758 14.4319 1.85779 14.2189C1.21776 13.8928 0.697511 13.3725 0.371399 12.7325C0.158422 12.3145 0.0750821 11.8729 0.0368201 11.4046C-0.000515301 10.9474 2.92605e-07 10.3861 3.7927e-07 9.7133L3.00443e-07 7.90994C2.77688e-07 7.38936 0.422329 6.96703 0.942903 6.96703C1.46348 6.96703 1.88581 7.38936 1.88581 7.90994V9.7133C1.88581 10.4173 1.88659 10.889 1.91622 11.2517C1.94496 11.6032 1.99571 11.7689 2.05069 11.8769C2.19607 12.1622 2.42813 12.3942 2.71345 12.5396C2.82138 12.5946 2.98714 12.6453 3.33858 12.6741C3.7013 12.7037 4.17298 12.7045 4.877 12.7045H10.123C10.827 12.7045 11.2987 12.7037 11.6614 12.6741C12.0129 12.6453 12.1786 12.5946 12.2866 12.5396C12.5719 12.3942 12.8039 12.1622 12.9493 11.8769C13.0043 11.7689 13.055 11.6032 13.0838 11.2517C13.1134 10.889 13.1142 10.4173 13.1142 9.7133V7.90993C13.1142 7.38936 13.5365 6.96703 14.0571 6.96703C14.5777 6.96703 15 7.38936 15 7.90993V9.7133C15 10.3861 15.0005 10.9474 14.9632 11.4046C14.9249 11.8729 14.8416 12.3145 14.6286 12.7325C14.3025 13.3725 13.7822 13.8928 13.1422 14.2189C12.7242 14.4319 12.2826 14.5152 11.8143 14.5535C11.3571 14.5908 10.7958 14.5903 10.123 14.5903ZM3.5547 4.88832C3.18659 4.52022 3.18659 3.92291 3.5547 3.55481L6.83324 0.276264C7.20134 -0.0918366 7.79865 -0.0918366 8.16675 0.276264L11.4453 3.55481C11.8134 3.92291 11.8134 4.52022 11.4453 4.88832C11.0772 5.25643 10.4799 5.25643 10.1118 4.88832L8.4429 3.21943V9.13939C8.4429 9.65996 8.02057 10.0823 7.5 10.0823C6.97943 10.0823 6.5571 9.65996 6.5571 9.13939L6.5571 3.21943L4.88821 4.88832C4.52011 5.25643 3.9228 5.25643 3.5547 4.88832Z" fill="#E1E1E1"/>
</g>
</svg>
