<svg width="24" height="24" viewBox="0 0 24 24" fill="none" xmlns="http://www.w3.org/2000/svg">
<path fill-rule="evenodd" clip-rule="evenodd" d="M11.2929 2.29289C11.6834 1.90237 12.3166 1.90237 12.7071 2.29289L16.2071 5.79289C16.5976 6.18342 16.5976 6.81658 16.2071 7.20711C15.8166 7.59763 15.1834 7.59763 14.7929 7.20711L13 5.41421V14.5C13 15.0523 12.5523 15.5 12 15.5C11.4477 15.5 11 15.0523 11 14.5V5.41421L9.20711 7.20711C8.81658 7.59763 8.18342 7.59763 7.79289 7.20711C7.40237 6.81658 7.40237 6.18342 7.79289 5.79289L11.2929 2.29289ZM5 11C5 9.89543 5.89543 9 7 9H8.5C9.05228 9 9.5 9.44772 9.5 10C9.5 10.5523 9.05228 11 8.5 11H7V20H17V11H15.5C14.9477 11 14.5 10.5523 14.5 10C14.5 9.44772 14.9477 9 15.5 9H17C18.1046 9 19 9.89543 19 11V20C19 21.1046 18.1046 22 17 22H7C5.89543 22 5 21.1046 5 20V11Z" fill="#E1E1E1"/>
</svg>
