<svg width="24" height="24" viewBox="0 0 24 24" fill="none" xmlns="http://www.w3.org/2000/svg">
<g transform="translate(3 2.942) scale(1.5)">
<path d="M6.33336 0C6.32721 0 6.32109 0.00100053 6.31497 0.00114933C6.30885 0.000999522 6.30274 1.00975e-06 6.29658 0H5.6294C4.85514 3.37089e-06 4.15687 0.465408 3.85829 1.17978L3.16122 2.84746H0.743039C0.332733 2.84746 0 3.18019 0 3.59049C4.94248e-05 4.00076 0.332764 4.33353 0.743039 4.33353H1.2384L2.23257 10.4658C2.38336 11.3952 3.18617 12.0783 4.1278 12.0783H8.53892C9.48055 12.0783 10.2834 11.3952 10.4342 10.4658L11.4283 4.33353H11.9237C12.334 4.33353 12.6667 4.00076 12.6667 3.59049C12.6667 3.18019 12.334 2.84746 11.9237 2.84746H9.5055L8.80844 1.17978C8.50985 0.465408 7.81159 3.37087e-06 7.03732 0H6.33336ZM8.96762 10.2279C8.93352 10.438 8.75177 10.5922 8.53892 10.5922H4.1278C3.91495 10.5922 3.7332 10.438 3.69911 10.2279L2.74344 4.33353H9.92328L8.96762 10.2279ZM6.33336 1.48608H7.03732C7.21235 1.48608 7.37037 1.59124 7.43786 1.75272L7.8953 2.84746H4.77143L5.22886 1.75272C5.29635 1.59124 5.45438 1.48608 5.6294 1.48608H6.29658C6.30274 1.48608 6.30885 1.48508 6.31497 1.48493C6.32109 1.48508 6.32721 1.48608 6.33336 1.48608Z" fill="#E1E1E1"/>
</g>
</svg>
