<svg width="24" height="24" viewBox="0 0 24 24" fill="none" xmlns="http://www.w3.org/2000/svg">
<g transform="translate(2 2) scale(1.5)">
<path d="M2.56667 10.0667C3.13333 9.63333 3.76667 9.29167 4.46667 9.04167C5.16667 8.79167 5.9 8.66667 6.66667 8.66667C7.43333 8.66667 8.16667 8.79167 8.86667 9.04167C9.56667 9.29167 10.2 9.63333 10.7667 10.0667C11.1556 9.61111 11.4583 9.09444 11.675 8.51667C11.8917 7.93889 12 7.32222 12 6.66667C12 5.18889 11.4806 3.93056 10.4417 2.89167C9.40278 1.85278 8.14444 1.33333 6.66667 1.33333C5.18889 1.33333 3.93056 1.85278 2.89167 2.89167C1.85278 3.93056 1.33333 5.18889 1.33333 6.66667C1.33333 7.32222 1.44167 7.93889 1.65833 8.51667C1.875 9.09444 2.17778 9.61111 2.56667 10.0667ZM5.00833 6.65833C4.55833 6.20833 4.33333 5.65556 4.33333 5C4.33333 4.34444 4.55833 3.79167 5.00833 3.34167C5.45833 2.89167 6.01111 2.66667 6.66667 2.66667C7.32222 2.66667 7.875 2.89167 8.325 3.34167C8.775 3.79167 9 4.34444 9 5C9 5.65556 8.775 6.20833 8.325 6.65833C7.875 7.10833 7.32222 7.33333 6.66667 7.33333C6.01111 7.33333 5.45833 7.10833 5.00833 6.65833ZM6.66667 13.3333C5.74444 13.3333 4.87778 13.1583 4.06667 12.8083C3.25556 12.4583 2.55 11.9833 1.95 11.3833C1.35 10.7833 0.875 10.0778 0.525 9.26667C0.175 8.45556 0 7.58889 0 6.66667C0 5.74444 0.175 4.87778 0.525 4.06667C0.875 3.25556 1.35 2.55 1.95 1.95C2.55 1.35 3.25556 0.875 4.06667 0.525C4.87778 0.175 5.74444 0 6.66667 0C7.58889 0 8.45556 0.175 9.26667 0.525C10.0778 0.875 10.7833 1.35 11.3833 1.95C11.9833 2.55 12.4583 3.25556 12.8083 4.06667C13.1583 4.87778 13.3333 5.74444 13.3333 6.66667C13.3333 7.58889 13.1583 8.45556 12.8083 9.26667C12.4583 10.0778 11.9833 10.7833 11.3833 11.3833C10.7833 11.9833 10.0778 12.4583 9.26667 12.8083C8.45556 13.1583 7.58889 13.3333 6.66667 13.3333Z" fill="#E1E1E1"/>
</g>
</svg>
