<svg width="24" height="24" viewBox="0 0 24 24" fill="none" xmlns="http://www.w3.org/2000/svg">
<path d="M16.3067 7.90179V14.0549C16.3067 15.932 14.785 17.4534 12.908 17.4536C11.0308 17.4536 9.50839 15.9321 9.50835 14.0549L9.50835 7.33914L11.146 8.97681C11.5539 9.38441 12.2146 9.38445 12.6224 8.97681C13.0303 8.56892 13.0303 7.90738 12.6224 7.49949L9.20282 4.07991C9.00695 3.88403 8.7407 3.77344 8.46369 3.77344C8.18683 3.77355 7.92127 3.88413 7.7255 4.07991L4.30592 7.49949C3.89803 7.90738 3.89803 8.56892 4.30592 8.97681C4.71376 9.38443 5.37446 9.38443 5.7823 8.97681L7.41997 7.33914L7.41997 14.0549C7.42002 17.0858 9.87713 19.543 12.908 19.543C15.9387 19.5427 18.395 17.0857 18.3951 14.0549L18.3951 7.90179C18.3951 7.32506 17.9281 6.85731 17.3514 6.85713C16.7745 6.85713 16.3067 7.32494 16.3067 7.90179Z" fill="#F7F7F7"/>
</svg>
