<svg width="168" height="56" viewBox="0 0 168 56" fill="none" xmlns="http://www.w3.org/2000/svg">
<path d="M166.732 31.169C165.936 29.2303 165.066 27.5898 164.122 26.2476C163.177 24.9054 162.208 23.8366 161.214 23.0412C160.269 22.1961 159.3 21.5995 158.306 21.2516C157.361 20.9036 156.466 20.7296 155.621 20.7296C154.329 20.7296 153.335 20.9781 152.639 21.4753C151.943 21.9227 151.421 22.6186 151.073 23.5631C150.774 24.5077 150.6 25.7007 150.551 27.1424C150.501 28.5343 150.476 30.1748 150.476 32.0638V48.0958L157.411 54.5085H136.01L141.528 48.0958V23.7123L136.457 17.9706H167.328V31.169H166.732Z" fill="#E1E1E1"/>
<path d="M135.888 34.5992C135.888 36.9853 135.465 39.4212 134.62 41.9068C133.825 44.3923 132.582 46.6294 130.892 48.6178C129.251 50.6063 127.138 52.2468 124.553 53.5393C122.018 54.782 119.011 55.4034 115.531 55.4034C112.896 55.4034 110.56 54.9063 108.522 53.9121C106.533 52.9179 104.843 51.6254 103.451 50.0346C102.109 48.3941 101.09 46.5299 100.394 44.4421C99.6977 42.3045 99.3498 40.1172 99.3498 37.8801C99.3498 35.494 99.7475 33.0581 100.543 30.5725C101.388 28.087 102.656 25.85 104.346 23.8615C106.036 21.873 108.149 20.2574 110.684 19.0146C113.219 17.7221 116.227 17.0759 119.707 17.0759C122.341 17.0759 124.653 17.573 126.641 18.5672C128.68 19.5614 130.37 20.8788 131.712 22.5193C133.104 24.1101 134.148 25.9742 134.844 28.1118C135.54 30.1997 135.888 32.3622 135.888 34.5992ZM115.68 19.9094C114.139 19.9094 112.896 20.2823 111.952 21.0279C111.057 21.7736 110.361 22.7181 109.864 23.8615C109.416 24.9551 109.118 26.1482 108.969 27.4407C108.87 28.7332 108.82 29.9512 108.82 31.0945C108.82 33.9778 109.068 36.7368 109.565 39.3715C110.112 41.9565 110.833 44.2432 111.728 46.2317C112.672 48.1704 113.816 49.7115 115.158 50.8548C116.5 51.9982 117.992 52.5699 119.632 52.5699C121.024 52.5699 122.167 52.1722 123.062 51.3768C123.957 50.5814 124.653 49.612 125.15 48.4687C125.697 47.2756 126.07 46.0328 126.269 44.7403C126.467 43.4478 126.567 42.3293 126.567 41.3848C126.567 38.4518 126.293 35.6928 125.747 33.1078C125.249 30.5228 124.529 28.261 123.584 26.3222C122.64 24.3338 121.496 22.7678 120.154 21.6245C118.812 20.4811 117.32 19.9094 115.68 19.9094Z" fill="#E1E1E1"/>
<path d="M98.8383 54.5084H65.3576L87.8023 20.6549H76.2444L68.8622 31.84H68.4148V16.6283L74.8276 17.9705H99.8822L77.4375 51.824H90.9341L99.6585 38.9239L100.106 39.073L98.8383 53.3899V54.5084Z" fill="#E1E1E1"/>
<path d="M56.2336 0L62.5718 6.86018L56.2336 13.7949L49.8208 6.86018L56.2336 0ZM60.9313 17.225V48.0959L66.4493 54.5086H46.4653L51.9833 48.0959V27.9627L46.9127 22.221L60.9313 17.225Z" fill="#E1E1E1"/>
<path d="M40.9374 9.84282L34.5992 3.43004H50.1838L44.964 10.0665L27.1425 55.9999H23.5632L3.8775 7.82951L0 3.43004H20.3569L14.3915 7.97864L27.3662 40.7137L28.3356 44.2183L40.9374 9.84282Z" fill="#E1E1E1"/>
</svg>
