<svg preserveAspectRatio="none" overflow="visible" style="display: block;" width="20" height="20" viewBox="0 0 20 20" fill="none" xmlns="http://www.w3.org/2000/svg">
<g id="svg">
<path id="icon" d="M10.8184 14.7693C11.0394 14.5491 11.1499 14.2763 11.1499 13.9509C11.1499 13.6256 11.0399 13.3513 10.8198 13.1282C10.5996 12.9052 10.3268 12.7937 10.0012 12.7937C9.67584 12.7937 9.40264 12.9052 9.18163 13.1282C8.96063 13.3513 8.85012 13.6256 8.85012 13.9509C8.85012 14.2763 8.96014 14.5491 9.18016 14.7693C9.40036 14.9895 9.67323 15.0996 9.99878 15.0996C10.3242 15.0996 10.5974 14.9895 10.8184 14.7693ZM10.7922 10.6689C11.0073 10.4538 11.1148 10.1898 11.1148 9.877V6.09144C11.1148 5.77863 11.0073 5.51458 10.7922 5.29929C10.5769 5.08417 10.3128 4.9766 10 4.9766C9.68719 4.9766 9.42314 5.08417 9.20785 5.29929C8.99272 5.51458 8.88516 5.77863 8.88516 6.09144V9.877C8.88516 10.1898 8.99272 10.4538 9.20785 10.6689C9.42314 10.8842 9.68719 10.9918 10 10.9918C10.3128 10.9918 10.5769 10.8842 10.7922 10.6689ZM10 20C8.61302 20 7.31164 19.7377 6.09585 19.213C4.8799 18.6883 3.82223 17.9764 2.92284 17.0772C2.02362 16.1778 1.31167 15.1201 0.787004 13.9041C0.262335 12.6884 0 11.387 0 10C0 8.61302 0.262335 7.31164 0.787004 6.09585C1.31167 4.8799 2.02362 3.82223 2.92284 2.92284C3.82223 2.02362 4.8799 1.31167 6.09585 0.787004C7.31164 0.262335 8.61302 0 10 0C11.387 0 12.6884 0.262335 13.9041 0.787004C15.1201 1.31167 16.1778 2.02362 17.0772 2.92284C17.9764 3.82223 18.6883 4.8799 19.213 6.09585C19.7377 7.31164 20 8.61302 20 10C20 11.387 19.7377 12.6884 19.213 13.9041C18.6883 15.1201 17.9764 16.1778 17.0772 17.0772C16.1778 17.9764 15.1201 18.6883 13.9041 19.213C12.6884 19.7377 11.387 20 10 20ZM10 17.7703C12.1732 17.7703 14.0115 17.0186 15.5152 15.5152C17.0186 14.0115 17.7703 12.1732 17.7703 10C17.7703 7.82684 17.0186 5.98845 15.5152 4.48485C14.0115 2.9814 12.1732 2.22968 10 2.22968C7.82684 2.22968 5.98845 2.9814 4.48485 4.48485C2.9814 5.98845 2.22968 7.82684 2.22968 10C2.22968 12.1732 2.9814 14.0115 4.48485 15.5152C5.98845 17.0186 7.82684 17.7703 10 17.7703Z" fill="#0DC87D"/>
</g>
</svg>
