<svg width="20" height="20" viewBox="0 0 20 20" fill="none" xmlns="http://www.w3.org/2000/svg">
<g id="svg" transform="translate(3.33335 3.33335)">
<path id="icon" d="M7.38095 0.219766C8.19205 -0.0415285 9.06026 -0.0704756 9.8869 0.136434C9.94363 0.150653 9.99569 0.180073 10.0379 0.22051C10.0801 0.260853 10.1113 0.311189 10.128 0.367084C10.1447 0.423094 10.1464 0.482769 10.1332 0.5397C10.1265 0.568273 10.1163 0.595849 10.1027 0.621543L10.0528 0.692226L7.58184 3.37223L7.51562 3.44515L7.53571 3.54187L7.90922 5.27918L7.93527 5.39897L8.0558 5.42502L9.88839 5.81861L9.96131 5.75165L12.6414 3.27774C12.6843 3.23807 12.737 3.20986 12.7939 3.19664C12.8507 3.18352 12.9099 3.18527 12.9658 3.20185C13.0217 3.21852 13.0727 3.24972 13.1131 3.29187C13.1535 3.33407 13.1822 3.38628 13.1964 3.44291C13.2873 3.80712 13.3334 4.18136 13.3333 4.55673C13.3341 5.31446 13.1459 6.06041 12.7857 6.72707C12.4255 7.39371 11.905 7.96042 11.2708 8.3751C10.6366 8.78979 9.90842 9.03941 9.15327 9.10202C8.39824 9.16458 7.63942 9.03825 6.94568 8.73373L6.81696 8.67718L6.72544 8.78358L3.29315 12.7537L3.29241 12.7545C3.28807 12.7595 3.28216 12.7655 3.27679 12.7708C2.91688 13.1308 2.42862 13.3333 1.91964 13.3333C1.4106 13.3333 0.922458 13.1308 0.5625 12.7708C0.202539 12.4109 0 11.9228 0 11.4137C1.97472e-05 10.9047 0.201812 10.4158 0.561756 10.0559L0.565476 10.0536C0.567889 10.0514 0.569824 10.0499 0.571428 10.0484C0.574165 10.0459 0.575149 10.0447 0.575149 10.0447L0.580357 10.0402L4.55059 6.60877L4.65699 6.51651L4.60045 6.38854C4.25904 5.60753 4.1433 4.74616 4.26637 3.90273C4.38947 3.05933 4.74655 2.26715 5.29687 1.61631C5.84732 0.96543 6.56962 0.481215 7.38095 0.219766Z" fill="#858686"/>
</g>
</svg>
