<svg width="20" height="20" viewBox="0 0 20 20" fill="none" xmlns="http://www.w3.org/2000/svg">
  <g transform="translate(1.66665 1.66665)">
    <path d="M9.22619 0.274707C10.2401 -0.0519107 11.3253 -0.0880944 12.3586 0.170543C12.4295 0.188316 12.4946 0.225091 12.5474 0.275637C12.6001 0.326067 12.6391 0.388987 12.66 0.458855C12.6808 0.528868 12.683 0.603461 12.6665 0.674625C12.6582 0.710341 12.6454 0.744811 12.6283 0.776929L12.566 0.865283L9.4773 4.21529L9.39453 4.30643L9.41964 4.42734L9.88653 6.59898L9.91908 6.74872L10.0698 6.78127L12.3605 7.27326L12.4516 7.18956L15.8017 4.09717C15.8554 4.04759 15.9212 4.01233 15.9924 3.9958C16.0633 3.9794 16.1374 3.98158 16.2072 4.00231C16.2772 4.02315 16.3409 4.06214 16.3914 4.11484C16.4418 4.16758 16.4777 4.23285 16.4955 4.30364C16.6091 4.7589 16.6667 5.2267 16.6667 5.69591C16.6676 6.64307 16.4323 7.57552 15.9821 8.40884C15.5319 9.24214 14.8812 9.95052 14.0885 10.4689C13.2958 10.9872 12.3855 11.2993 11.4416 11.3775C10.4978 11.4557 9.54927 11.2978 8.6821 10.9172L8.5212 10.8465L8.40681 10.9795L4.11644 15.9422L4.11551 15.9431C4.11009 15.9494 4.10269 15.9568 4.09598 15.9636C3.6461 16.4135 3.03577 16.6666 2.39955 16.6667C1.76325 16.6667 1.15307 16.4135 0.703125 15.9636C0.253173 15.5136 0 14.9035 0 14.2672C2.4684e-05 13.6308 0.252265 13.0198 0.702195 12.5698L0.706845 12.567C0.709861 12.5642 0.71228 12.5624 0.714286 12.5605C0.717707 12.5574 0.718936 12.5559 0.718936 12.5559L0.725446 12.5503L5.68824 8.26096L5.82124 8.14564L5.75056 7.98567C5.32379 7.00941 5.17913 5.93271 5.33296 4.87841C5.48684 3.82416 5.93319 2.83394 6.62109 2.02039C7.30915 1.20679 8.21203 0.601519 9.22619 0.274707Z" fill="currentColor"/>
  </g>
</svg>
